<svg width="24" height="24" viewBox="0 0 24 24" fill="none" xmlns="http://www.w3.org/2000/svg">
<path fill-rule="evenodd" clip-rule="evenodd" d="M12.0001 2.64941C17.1645 2.64941 21.3507 6.83587 21.3507 12.0001C21.3507 17.1643 17.1645 21.3507 12.0001 21.3507C6.83587 21.3507 2.64941 17.1643 2.64941 12.0001C2.64941 6.83587 6.83587 2.64941 12.0001 2.64941Z" stroke="#070707" stroke-width="1.63636" stroke-linecap="round" stroke-linejoin="round"/>
<path d="M12 1.21094V4.80734" stroke="#070707" stroke-width="1.63636" stroke-linecap="round" stroke-linejoin="round"/>
<path d="M22.7898 12H19.1934" stroke="#070707" stroke-width="1.63636" stroke-linecap="round" stroke-linejoin="round"/>
<path d="M12 22.7898V19.1934" stroke="#070707" stroke-width="1.63636" stroke-linecap="round" stroke-linejoin="round"/>
<path d="M1.21094 12H4.80734" stroke="#070707" stroke-width="1.63636" stroke-linecap="round" stroke-linejoin="round"/>
<path fill-rule="evenodd" clip-rule="evenodd" d="M11.9996 9.8418C13.1915 9.8418 14.1575 10.8078 14.1575 11.9996C14.1575 13.1915 13.1915 14.1575 11.9996 14.1575C10.808 14.1575 9.8418 13.1915 9.8418 11.9996C9.8418 10.8078 10.808 9.8418 11.9996 9.8418Z" stroke="#070707" stroke-width="1.63636" stroke-linecap="round" stroke-linejoin="round"/>
</svg>
