<svg width="30" height="30" viewBox="0 0 30 30" fill="none" xmlns="http://www.w3.org/2000/svg">
<path d="M14.7308 0.379883C6.65344 0.379883 0.116211 6.89855 0.116211 14.9549C0.116211 23.0104 6.65259 29.5299 14.7308 29.5299C22.8082 29.5299 29.3454 23.0112 29.3454 14.9549C29.3454 6.89941 22.809 0.379883 14.7308 0.379883ZM14.7308 27.4962C7.79675 27.4962 2.15546 21.8702 2.15546 14.9549C2.15546 8.03961 7.79675 2.41361 14.7308 2.41361C21.6649 2.41361 27.3061 8.03961 27.3061 14.9549C27.3061 21.8702 21.6649 27.4962 14.7308 27.4962Z" fill="#0B0B0B"/>
<path d="M14.7305 11.9717C14.1674 11.9717 13.7109 12.427 13.7109 12.9885V21.3267C13.7109 21.8883 14.1675 22.3436 14.7305 22.3436C15.2936 22.3436 15.7501 21.8883 15.7501 21.3267V12.9886C15.7501 12.427 15.2937 11.9717 14.7305 11.9717Z" fill="#0B0B0B"/>
<path d="M14.7305 7.56641C14.1674 7.56641 13.7109 8.02171 13.7109 8.58324V9.8035C13.7109 10.3651 14.1675 10.8203 14.7305 10.8203C15.2936 10.8203 15.7501 10.365 15.7501 9.8035V8.58324C15.7501 8.02171 15.2937 7.56641 14.7305 7.56641Z" fill="#0B0B0B"/>
</svg>
