<?xml version="1.0" encoding="UTF-8"?>
<svg width="150" style="padding-top:5px" viewBox="0 0 123 67" xmlns="http://www.w3.org/2000/svg">
<path d="M47.91 33.558c-1.242 1.062-2.547 2.08-3.716 3.194-3.57 3.402-6.166 7.278-8.281 11.37-2.062 3.988-3.661 8.08-4.423 12.349-.069.39-.104.782-.155 1.175-3.8-.892-6.36-4.518-5.539-7.867.8-3.26 2.388-6.317 3.936-9.389 1.193-2.368 2.284-4.77 3.362-7.172.304-.677.48-1.409.103-2.276-.85.666-1.641 1.24-2.368 1.864-3.614 3.11-6.225 6.75-8.413 10.602-2.044 3.6-3.685 7.317-4.862 11.148-.321 1.044-.339 2.144-.46 3.22-.047.426.007.857.017 1.465-1.913-.494-3.758-.852-5.473-1.447-1.756-.61-2.415-2.067-1.868-3.626 2.668-7.62 5.363-15.234 8.017-22.857.362-1.042.584-2.12.8-3.187.16-.792-.361-1.242-1.342-1.243-1.288-.001-2.392.486-3.359 1.133-2.187 1.462-4.108 3.138-5.5 5.17-1.55 2.265-2.119 4.594-.7 7.075-2.169-.59-4.167-1.228-6.016-2.161C.342 41.428.004 40.41.318 39.272c.263-.946.688-1.93 1.342-2.738 2.772-3.422 6.5-5.896 11.254-7.14 3.1-.812 5.939-.41 8.345 1.425.674.514 1.584.817 2.364 1.244 1.646.899 1.916 1.826 1.29 3.434a91.239 91.239 0 0 0-2.369 6.92c.805-.939 1.567-1.905 2.423-2.812a248.472 248.472 0 0 1 5.464-5.633c.992-.986 2.21-1.77 3.794-1.977 3.543-.462 6.404 2.054 5.801 5.083-.069.349-.171.694-.303 1.214.487-.543.835-.974 1.235-1.372 1.66-1.649 3.251-3.352 5.027-4.914 1.727-1.517 3.87-1.803 5.766-1.194 3.626 1.165 3.717 3.846 2.9 5.945-1.163 2.984-2.406 5.955-3.374 8.977-1.37 4.274-2.078 8.615-1.643 13 .232 2.338.779 4.606 2.154 6.663.181.27.397.524.602.783.304.38.152.757-.413.801-.532.041-1.122.023-1.603-.132-3.725-1.194-6.814-3.086-9.199-5.719-.75-.828-.859-1.831-.94-2.833-.252-3.182.455-6.296 1.723-9.311 1.324-3.15 2.965-6.216 4.406-9.337.685-1.482 1.26-2.998 1.811-4.516.168-.462.083-.978.114-1.469l-.379-.106Z" fill="var(--mooBlack)"></path>
<path d="M79.392 48.813c-1.095 1.343-2.052 2.514-3.004 3.688a.44.44 0 0 0-.109.217c-.055.681-.076 1.372.696 1.795.77.42 1.66.527 2.514.176.844-.348.93-1.062.811-1.712-.244-1.347-.578-2.68-.908-4.164Zm9.112 3.356c.95-2.697 1.916-5.333 2.803-7.983a66.097 66.097 0 0 0 1.554-5.3c.237-.97.154-1.967-.652-2.992 1.036.133 1.913.184 2.738.372.813.184 1.57.514 2.359.767 1.252.403 1.775 1.237 1.637 2.273-.19 1.443-.526 2.88-.87 4.312-.688 2.85-1.425 5.691-2.14 8.538-.047.19-.06.383-.113.738.542-.415.977-.7 1.34-1.036.806-.749 1.546-1.55 2.372-2.283.655-.582.767-1.224.764-1.959-.009-2.546.542-5.023 1.942-7.358 2.1-3.503 5.592-5.543 10.059-6.544 1.554-.347 3.117-.484 4.692-.32 2.352.244 3.393 1.405 3.146 3.364-.171 1.354-.754 2.55-1.959 3.502a63.002 63.002 0 0 1-3.651 2.66 2.88 2.88 0 0 1-1.38.446c-.298.013-.684-.271-.873-.51-.084-.107.156-.488.36-.645 1.455-1.122 2.95-2.207 4.406-3.328.294-.226.518-.534.699-.834.262-.436.083-.685-.488-.726-.231-.016-.495-.014-.704.063-3.455 1.264-6.515 2.96-8.459 5.736-2.081 2.97-2.309 6.1-1.239 9.266.494 1.463 1.868 1.916 3.638 1.316 1.579-.534 2.851-1.44 4.036-2.422a37.687 37.687 0 0 0 4.317-4.181 32.969 32.969 0 0 0 1.831-2.285c.373-.509.956-1.9 1.588-2.083 1.044-.3.279 2.365.035 2.728-1.855 2.775-3.993 5.402-6.883 7.56-1.95 1.458-4.159 2.418-6.81 2.484-3.177.08-7.086-.825-8.033-4.34-.187.172-.33.294-.459.424-.826.83-1.613 1.694-2.418 2.54-.467.49-.84 1.098-1.393 1.5-1.16.843-3.124-.135-4.34-.562-1.415-.496-2.756-1.246-3.508-2.597-.038.426-.044.68-.083.93-.414 2.662-2.818 4.697-6.202 5.236-1.352.214-2.708.333-4.048.04-1.981-.43-3.26-1.467-3.893-3.058-.051-.13-.095-.26-.149-.388-.015-.033-.056-.06-.178-.185-.978.998-1.944 1.974-2.892 2.96-.271.282-.528.377-.977.292-1.94-.369-3.753-.93-5.245-2.027-.245-.18-.46-.384-.686-.58-.679-.586-.972-1.23-.536-2.069.251-.483.351-1.014.412-1.55-.418.852-.786 1.72-1.263 2.549-.705 1.222-1.485 2.418-2.243 3.62-.11.176-.275.33-.42.49-.585.64-1.22.975-2.27.722-1.666-.401-3.308-.809-4.68-1.697-.405-.26-.768-.566-1.123-.872-.691-.597-.875-1.219-.534-2.115 1.354-3.559 2.6-7.142 3.82-10.729.297-.87.454-1.79.486-2.686.03-.824-.192-1.646-.316-2.558.725.096 1.63.143 2.473.344.786.186 1.51.532 2.257.811 1.713.641 2.236 1.844 1.958 3.288-.281 1.457-.776 2.892-1.145 4.34-.713 2.785-1.405 5.573-2.103 8.36-.027.111-.015.23.093.384.348-.492.744-.966 1.035-1.477 2.569-4.511 5.163-9.014 7.642-13.555.614-1.126.397-2.358-.136-3.495 2.347-.251 5.666.466 6.502 2.673.454 1.2.25 2.39-.094 3.604-.98 3.466-1.925 6.94-2.88 10.41-.042.15-.043.307-.087.636.54-.445.965-.76 1.343-1.11 2.359-2.183 4.234-4.639 6.014-7.144.124-.176.128-.447.08-.654-.308-1.338-.823-2.635-.702-4.046.198-2.328 2.14-4.33 4.057-5.457a9.186 9.186 0 0 1 4.91-1.272c.87.027 1.736.18 2.561.458.957.321 1.415.548 1.828 1.468-.285 0-.582.04-.852-.008-2.866-.52-4.997.99-4.775 3.568.138 1.612.551 3.21.999 4.779.613 2.147 1.376 4.264 2.098 6.469Z" fill="var(--mooBlack)"></path>
<path d="M99.93 35.287c-1.978.057-3.866.137-5.469-.688-.973-.502-1.116-.824-.782-1.69.462-1.201.273-2.379.022-3.55-.057-.269-.131-.536-.21-.847.446-.043.855-.142 1.231-.108 1.811.16 3.464.595 4.872 1.413.703.41.933.902.752 1.622-.266 1.06-.301 2.14-.425 3.211-.022.186.005.373.01.637ZM34.873 22.788c.044.048.092.089.134.137.048.041.075.095.12.143.047.041.09.089.132.125.044.048.097.084.14.12.043.047.076.106.125.147.038.043.1.067.148.11.044.047.071.1.114.147.048.042.095.073.144.126.043.036.09.078.135.125.042.037.085.084.132.125.02.016.058.02.073.003.055-.063.05-.068.104-.132.055-.064.068-.054.122-.116.015-.018.035-.04.053-.025.079.067.064.085.135.148.073.062.068.067.14.13.073.063.093.039.165.102.073.062.068.067.14.13l.145.126c.018.016.02.048.006.066-.06.069-.054.074-.114.143-.06.069-.078.054-.138.123-.06.069-.054.074-.114.143-.06.069-.054.074-.113.144-.066.075-.07.07-.13.14-.06.068-.066.063-.126.132-.06.07-.042.085-.1.154-.06.07-.078.054-.139.123-.06.07-.053.074-.117.15-.06.069-.048.08-.108.148-.06.069-.072.059-.132.128-.015.017-.043.023-.06.008-.073-.062-.078-.057-.15-.12l-.145-.125c-.073-.063-.063-.074-.134-.137-.073-.063-.063-.074-.136-.137-.071-.063-.082-.05-.154-.114-.019-.015-.039-.053-.024-.07.05-.058.068-.042.123-.106.05-.057.044-.062.093-.12.015-.018.019-.045 0-.061-.043-.048-.107-.072-.15-.12-.047-.041-.086-.095-.133-.136-.05-.053-.103-.088-.15-.13-.045-.048-.082-.101-.126-.149a1.562 1.562 0 0 1-.134-.136c-.05-.042-.092-.09-.147-.137a1.507 1.507 0 0 0-.134-.137c-.044-.048-.097-.083-.145-.125-.049-.042-.086-.096-.141-.142l-.145-.125c-.047-.042-.081-.1-.129-.143-.044-.048-.101-.078-.155-.125-.05-.04-.087-.095-.13-.143-.05-.04-.102-.077-.15-.119-.048-.041-.092-.089-.14-.13-.05-.053-.093-.1-.14-.142-.05-.042-.102-.078-.145-.125-.05-.042-.087-.094-.136-.137a1.663 1.663 0 0 0-.14-.142.038.038 0 0 0-.055.003c-.075.086-.063.096-.138.183-.07.08-.082.07-.156.157-.015.017-.047.019-.066.004-.073-.063-.077-.057-.15-.12-.072-.062-.057-.08-.135-.148-.073-.062-.088-.045-.16-.107-.073-.063-.053-.086-.126-.148-.073-.063-.086-.046-.165-.113-.013-.01-.01-.04.006-.056.014-.027.05-.046.07-.069l.125-.144c.04-.046.08-.103.118-.15.04-.046.086-.087.13-.138.041-.047.062-.108.102-.153.044-.053.08-.103.118-.15.04-.046.103-.082.143-.129.034-.051.067-.114.107-.159.04-.046.085-.087.13-.14.04-.046.074-.097.114-.142.075-.087.146-.096.254-.073.063.014.125.038.187.052l.187.04c.056.018.123.015.186.04.063.014.125.026.182.045.068.019.126.038.188.051.058.02.122.056.178.074.063.014.116.05.184.07.057.018.128.01.185.028.057.019.126.038.187.052.058.02.112.066.175.09.05.014.102.039.155.064.051.014.112.016.17.036.05.014.102.04.16.058.051.014.108.023.158.036l.153.042c.045.008.093.04.144.054.034.01.087.035.137.047a.255.255 0 0 0 .148-.012c.064-.025.051-.097.036-.14-.022-.061-.071-.114-.094-.173-.027-.053-.05-.113-.078-.178-.027-.054-.034-.12-.061-.184-.028-.054-.087-.095-.116-.16-.027-.053-.033-.119-.067-.177-.023-.06-.062-.113-.088-.167-.033-.06-.072-.113-.094-.172-.033-.059-.049-.113-.078-.178-.027-.054-.06-.113-.088-.167-.032-.059-.055-.118-.082-.172-.034-.059-.05-.124-.078-.178a1.34 1.34 0 0 1-.083-.172c-.034-.059-.076-.106-.105-.172-.028-.053-.034-.12-.057-.179a4.156 4.156 0 0 1-.094-.172c-.021-.059-.039-.124-.066-.178-.038-.103-.04-.174.031-.254.039-.047.092-.082.127-.123.04-.047.061-.108.101-.155.035-.04.087-.075.127-.121l.114-.133c.04-.048.098-.078.138-.123.035-.04.057-.102.097-.148l.114-.132.114-.133c.04-.046.087-.088.125-.133.02-.022.052-.046.076-.075.015-.017.041-.035.059-.02l.145.125c.073.063.058.08.13.142.072.063.093.04.171.108.073.063.063.074.136.137.072.062.077.056.149.119.017.015.029.064.014.081-.076.087-.093.072-.169.157-.075.087-.069.092-.142.178-.016.018-.008.034.01.05l.16.107c.054.046.078.117.132.153.047.041.116.06.17.097.047.041.09.1.14.141.052.037.101.078.15.12l.16.107.15.13c.048.042.107.072.16.109.048.041.09.089.14.13.049.041.106.072.16.12.053.036.107.07.156.112.052.037.106.072.159.108.049.041.107.071.16.108.048.041.093.1.141.142.054.036.092.089.14.13.054.036.126.049.175.09.048.042.088.106.137.147.052.036.111.067.159.108.054.036.111.066.16.109.018.015.034.009.05-.009.05-.057.062-.047.11-.105l.106-.12c.015-.018.028-.008.045.008.073.063.097.034.17.096.072.062.062.074.135.136.073.063.078.057.156.124.072.062.052.086.124.148.073.063.093.04.165.102.018.016.017.055.002.073-.06.067-.067.064-.126.133-.055.064-.049.069-.109.138s-.054.075-.108.138c-.06.069-.065.064-.125.133l-.114.133c-.06.069-.048.079-.102.143l-.119.137c-.055.064-.061.058-.12.128-.06.07-.072.06-.127.122-.06.068-.065.063-.125.133-.056.064-.05.068-.108.138-.06.069-.072.059-.127.122-.02.022-.03.035-.048.018-.072-.062-.062-.074-.135-.136l-.144-.126-.145-.125-.145-.126c-.073-.062-.083-.051-.154-.114-.018-.016-.04-.052-.02-.076.05-.058.069-.043.124-.105.055-.065.066-.053.121-.117.015-.018 0-.06-.023-.07-.048-.042-.086-.084-.135-.126-.047-.043-.11-.055-.159-.096-.053-.037-.102-.078-.148-.108-.049-.043-.092-.09-.134-.127-.048-.041-.097-.084-.15-.12-.036-.03-.073-.072-.121-.113a1.33 1.33 0 0 1-.143-.103c-.054-.036-.09-.078-.138-.11-.06-.052-.137-.097-.187-.161-.038-.043-.106-.072-.12.018-.015.077.044.169.071.233.015.044.028.114.062.174.032.06.071.112.092.16l.068.18c.023.06.052.124.073.184.017.066.055.12.078.179.03.025.047.091.065.156.017.066.04.126.054.157.016.054.049.102.065.157.021.049.038.103.054.157.023.06.05.125.079.19.018.064.045.128.068.188.029.066.04.137.074.195.015.044.032.109.044.17a.268.268 0 0 1-.018.166c-.024.04-.041.085-.084.098-.043.014-.088.005-.128.001-.066-.007-.125-.038-.192-.045-.068-.008-.136.012-.204.005-.068-.008-.124-.028-.198-.04-.062-.014-.127-.048-.19-.062-.061-.014-.13-.032-.192-.045-.062-.014-.139.001-.2-.012-.067-.008-.13-.033-.198-.052l-.187-.04c-.063-.014-.126-.038-.187-.051l-.187-.04c-.063-.014-.125-.038-.187-.052-.073-.014-.13-.021-.192-.035-.068-.008-.138.001-.2-.013-.063-.013-.126-.037-.187-.051-.023.001-.046-.009-.073-.012-.042-.004-.054.035-.024.06Zm4.288-4.702c-.039-.05-.084-.097-.123-.147-.037-.061-.054-.119-.088-.174-.032-.055-.065-.11-.092-.17-.033-.056-.054-.12-.08-.18-.028-.06-.05-.113-.077-.173-.022-.064-.054-.12-.07-.178a1.778 1.778 0 0 1-.052-.192c-.016-.06-.02-.126-.03-.188-.01-.063.001-.122-.002-.19a.959.959 0 0 1-.008-.185c-.004-.068-.025-.132-.024-.193.007-.067.003-.135.009-.189.008-.065.041-.121.053-.181.012-.07.014-.132.036-.19.013-.06.019-.125.03-.184.023-.058.04-.122.064-.18l.068-.174c.022-.058.056-.114.084-.165.034-.057.088-.098.115-.15.034-.056.067-.101.1-.156.038-.05.07-.096.11-.146.037-.05.067-.113.11-.155.039-.05.097-.075.14-.118.043-.044.086-.088.135-.124.044-.044.096-.076.15-.117.05-.037.078-.1.126-.137.052-.031.115-.05.169-.08.053-.031.117-.05.17-.08.058-.025.09-.08.149-.106.057-.025.12-.042.179-.068.053-.02.11-.045.172-.062.064-.019.13-.019.187-.033.056-.014.12-.031.181-.039.057-.014.12-.032.182-.04.062-.007.127.003.19-.005.066-.001.126.003.187.006.06.004.128-.007.188-.005.061.004.128.003.193.013.054.009.123.036.183.05.059.014.12.018.184.039.06.015.123.035.183.05.058.025.123.037.182.062.058.025.102.082.16.119.059.026.123.036.18.072.053.03.098.076.148.118.058.037.11.067.16.108.052.042.11.067.161.108l.136.138c.045.046.076.112.121.158.04.05.09.092.13.142.038.05.071.105.105.16.039.05.065.11.099.166.033.055.072.105.1.165.025.06.082.108.11.169.026.059.03.126.046.185.027.06.037.123.058.187.016.058.053.12.063.183.017.058.027.12.037.183.01.063.03.127.035.195.004.067.002.129.002.19.004.067-.018.125-.015.192-.007.067.01.124.003.19a2.45 2.45 0 0 1-.03.184c-.008.067-.052.12-.064.18-.011.06-.03.123-.048.188-.016.052-.019.125-.041.183-.023.057-.065.101-.094.164-.028.051-.03.124-.058.175-.034.057-.081.095-.115.15-.04.05-.062.108-.1.158a1.176 1.176 0 0 1-.105.15c-.044.044-.071.106-.11.156-.044.044-.097.075-.144.111-.044.044-.092.08-.136.125-.047.037-.086.086-.134.124-.054.041-.093.091-.145.123-.048.037-.102.067-.155.099-.052.031-.125.036-.18.067-.052.03-.096.074-.153.1-.06.025-.126.025-.183.05-.058.025-.108.072-.165.086-.063.019-.12.043-.183.05-.056.014-.128.01-.184.022-.062.007-.12.031-.182.039-.063.007-.132-.02-.193-.013-.067.001-.124.025-.187.033-.06-.004-.127-.003-.193-.013-.06-.004-.124-.035-.183-.05-.06-.004-.128.008-.194-.001-.06-.015-.116-.052-.18-.073-.06-.015-.126-.014-.184-.039-.06-.015-.11-.056-.169-.081-.059-.026-.123-.047-.175-.077-.063-.031-.122-.046-.18-.083-.052-.03-.09-.091-.146-.128-.057-.036-.122-.046-.173-.087-.052-.042-.09-.092-.14-.133-.046-.047-.084-.107-.129-.153-.045-.047-.103-.072-.153-.123-.042-.05-.075-.106-.114-.157Zm3.546-2.735c-.04-.05-.096-.098-.14-.144-.046-.046-.078-.111-.129-.152a1.377 1.377 0 0 0-.151-.136c-.053-.03-.108-.078-.166-.114a1.855 1.855 0 0 0-.173-.088c-.064-.021-.13-.03-.188-.056-.065-.01-.126-.025-.19-.035-.061-.004-.126-.014-.186-.018-.067.001-.137-.015-.199-.008-.056.014-.125.026-.187.044-.052.02-.106.062-.159.093-.057.025-.111.057-.164.087-.048.037-.115.049-.164.086-.054.042-.093.092-.14.13-.044.043-.077.099-.116.149-.04.05-.067.101-.106.152a1.21 1.21 0 0 0-.084.165c-.022.058-.04.122-.064.18-.01.058-.051.12-.062.179l-.004.194c.004.068.014.13.029.2.01.062.037.122.053.18.026.07.018.137.045.197s.054.12.086.186c.033.055.06.115.093.17.039.05.105.1.144.15.04.052.072.106.11.157.056.058.088.115.134.16.051.041.121.058.171.099.057.047.107.089.16.119.062.031.116.052.174.076.068.04.12.07.184.09.06.015.125.025.19.035.064.02.126.002.187.006.066-.001.133.009.194.001.061-.007.123-.014.186-.032.057-.014.111-.056.174-.074.058-.024.107-.062.16-.093.047-.038.11-.055.165-.098.049-.038.086-.087.13-.13a.496.496 0 0 0 .12-.143c.044-.044.067-.102.106-.15.034-.057.088-.099.115-.15.023-.058.026-.13.037-.19.017-.063.051-.12.052-.193.012-.059.002-.121-.002-.19.001-.06-.02-.125-.03-.187-.015-.07-.019-.137-.04-.202-.017-.058-.02-.126-.052-.19-.027-.061-.06-.116-.093-.171a1.46 1.46 0 0 0-.091-.182c-.032-.057-.08-.11-.12-.16Zm2.404-1.684c-.029-.057-.063-.11-.091-.168-.026-.067-.03-.128-.052-.188a1.742 1.742 0 0 1-.058-.185c-.021-.06-.028-.128-.043-.192-.016-.064-.026-.12-.04-.185-.008-.068-.03-.128-.035-.188a1.698 1.698 0 0 1-.012-.198c-.004-.06.005-.127.008-.19.002-.065.026-.12.035-.188a.976.976 0 0 1 .028-.183c.01-.067.002-.134.014-.194.02-.063.03-.13.045-.183.02-.064.064-.112.087-.168.026-.067.04-.126.073-.178l.066-.176c.034-.051.064-.112.098-.163l.1-.157c.034-.052.078-.1.116-.145.044-.05.105-.08.143-.124.043-.05.085-.087.129-.135l.135-.12c.048-.041.088-.097.14-.13.047-.042.109-.054.16-.088.052-.034.102-.068.157-.096.051-.033.109-.053.17-.085.054-.026.096-.083.15-.109.059-.02.123-.025.181-.045.06-.02.123-.025.182-.045.062-.013.106-.062.168-.074.062-.013.127-.018.188-.032.056-.01.117-.022.182-.027.066-.005.13.006.189.004.059-.003.124-.008.185-.003.06-.002.124-.007.186-.002.061.005.124.027.185.032.066.013.125.028.184.044.059.016.127.018.185.033.06.016.124.027.186.05.051.019.114.059.17.085.055.026.114.042.173.075.056.027.114.06.17.086.052.036.114.06.166.095.052.036.085.102.133.148.053.036.115.059.163.107.046.04.08.094.122.144.05.047.094.086.137.136.042.05.094.087.137.137l.105.162c.035.054.053.125.088.18.029.057.07.107.099.165a1.7 1.7 0 0 1 .071.178c.03.058.043.122.064.182.022.06.05.118.064.182.015.064.06.121.075.185.016.064.006.13.01.191.014.064.012.128.02.194.003.06.028.128.026.192.005.06.002.124-.002.187-.002.064.005.132-.003.198-.01.067-.023.127-.035.187-.01.067-.043.12-.052.186-.02.063-.015.123-.035.187-.02.064-.044.119-.066.175-.02.063-.076.108-.098.165a2.392 2.392 0 0 1-.083.174c-.026.049-.043.12-.077.172-.033.052-.084.086-.125.141-.036.044-.053.116-.09.161-.044.049-.098.075-.143.124-.048.042-.082.094-.13.136a1.562 1.562 0 0 1-.131.128c-.052.033-.092.09-.14.131-.05.034-.108.054-.164.082-.05.034-.105.06-.155.095-.055.028-.102.07-.157.095-.061.03-.11.072-.168.092-.055.026-.113.046-.17.067-.06.02-.131.01-.19.03-.058.02-.11.055-.17.067-.062.014-.127.002-.19.014-.061.013-.12.05-.178.053-.065.005-.127.017-.19.012-.057.003-.126-.017-.185-.015-.062-.005-.124.008-.186.003-.061-.005-.124-.045-.187-.05-.065-.013-.126 0-.188-.005-.059-.017-.124-.028-.187-.05-.059-.017-.114-.06-.169-.086-.059-.015-.128-.017-.19-.04-.054-.026-.103-.073-.162-.107-.056-.026-.12-.037-.173-.074-.056-.026-.098-.076-.15-.113-.052-.037-.111-.07-.156-.11-.056-.044-.11-.069-.16-.117-.045-.04-.07-.107-.119-.155-.049-.046-.11-.069-.153-.12-.043-.05-.07-.108-.113-.159-.035-.053-.06-.121-.095-.175-.035-.054-.087-.09-.126-.152-.027-.059-.048-.119-.076-.177Zm4.014-1.984c-.03-.057-.075-.115-.11-.17-.035-.053-.054-.124-.095-.175a1.385 1.385 0 0 0-.123-.161c-.045-.04-.09-.098-.14-.145-.044-.04-.1-.082-.152-.12-.059-.033-.122-.057-.173-.093-.063-.023-.118-.049-.18-.071-.059-.015-.12-.038-.179-.054-.065-.012-.132-.042-.193-.048-.058.002-.127.001-.192.006-.055.01-.117.04-.174.06-.062.013-.12.033-.178.053-.055.026-.123.025-.178.053-.062.03-.11.071-.163.098-.052.034-.096.082-.144.124-.047.041-.084.086-.131.128a1.215 1.215 0 0 0-.115.145c-.034.052-.065.112-.098.164-.023.057-.074.108-.098.165l-.042.19a1.1 1.1 0 0 0-.01.2c-.003.064.012.128.015.188.012.075-.008.137.007.202a3.1 3.1 0 0 0 .047.198c.022.06.037.126.058.186.029.056.084.118.113.175.029.058.05.118.078.176.042.068.064.13.099.182.041.05.108.08.149.131.045.058.087.108.133.148.056.044.104.073.157.11.059.051.104.091.163.125.055.026.118.049.18.072.058.032.123.027.182.042.066.013.128.035.19.04.061.005.124.01.189.004.059-.002.12-.033.186-.038.061-.012.116-.04.174-.06.054-.027.12-.032.182-.063.055-.027.101-.067.153-.102a.494.494 0 0 0 .147-.117c.051-.034.085-.087.133-.128.043-.048.105-.079.143-.124.033-.053.05-.123.072-.18.03-.058.074-.107.09-.178.024-.056.027-.119.036-.186.012-.06.005-.127.007-.191-.001-.07.009-.138 0-.204-.004-.06.005-.128-.012-.199a1.795 1.795 0 0 0-.058-.185c-.015-.064-.029-.128-.054-.195-.024-.06-.063-.121-.092-.178ZM50.95 7.79c.095-.029.097-.021.185-.046.095-.028.093-.035.18-.06.088-.026.088-.026.184-.052.087-.025.09-.017.184-.045l.176-.05.183-.054c.095-.028.099-.013.187-.038.087-.025.081-.047.175-.076l.183-.053c.088-.025.094-.002.183-.028.096-.027.087-.058.173-.084.096-.027.102-.005.19-.03.021-.006.034.007.04.03.026.092.041.087.068.18.026.091.034.09.06.182.026.091.005.099.031.19l.054.183.054.185c.007.022.001.032-.02.039-.08.023-.074.046-.162.071-.08.024-.082.016-.163.039a.037.037 0 0 0-.025.049c.026.091.011.097.04.188.025.093.048.087.077.186.026.091-.003.1.024.193.026.091.041.088.067.18.03.098.037.097.063.189.028.091.005.097.032.189.026.092.048.085.077.186.027.092.034.09.062.181.026.092.012.096.039.187.028.1.043.096.07.187l.052.185c.027.091.013.096.042.195.026.092.012.097.039.188.026.092.056.083.083.176.028.099 0 .108.026.2.026.092.049.086.075.177.026.092.019.095.048.194l.054.183c.006.024.029.017.05.01.088-.025.095-.003.182-.028s.085-.034.173-.059c.088-.025.085-.032.173-.059.088-.025.094-.002.183-.027.087-.027.085-.034.18-.062.088-.025.09-.017.179-.044.021-.006.041-.045.035-.067-.026-.092-.042-.088-.07-.187l-.056-.192c-.026-.092-.012-.097-.041-.196-.026-.091-.034-.089-.063-.19-.006-.022-.001-.057.022-.063.087-.025.091-.01.18-.037.088-.025.085-.032.173-.058l.176-.052c.088-.025.09-.018.178-.044l.176-.051c.087-.027.09-.018.178-.044.021-.006.023.001.031.024.026.091.056.084.08.168.027.091.02.094.047.185.025.084.01.09.036.181.024.084.047.078.073.17.025.083.002.09.029.181.023.084.039.08.065.173l.051.176c.027.091.034.09.06.174.026.092.012.097.036.18.026.092.02.095.044.179.026.091.048.085.072.17.007.022-.014.06-.035.067-.088.025-.09.018-.178.044-.088.025-.093.01-.18.036-.088.025-.082.05-.169.074-.087.027-.085.033-.173.06-.087.024-.096-.006-.184.02-.088.026-.082.048-.17.073-.087.025-.09.01-.179.037l-.175.051c-.087.025-.08.049-.17.074-.087.025-.094.002-.181.028-.088.025-.082.047-.17.074-.088.025-.094.002-.182.027l-.175.05c-.088.025-.09.018-.178.044-.088.025-.086.033-.173.06l-.184.052c-.087.025-.085.033-.173.059-.087.025-.09.017-.178.044l-.175.051c-.088.025-.09.018-.178.043-.088.025-.082.049-.17.074-.087.025-.091.01-.18.035-.087.025-.086.032-.172.059-.023.006-.05-.01-.058-.033-.025-.084-.017-.086-.044-.178-.026-.091-.041-.088-.068-.18-.027-.09-.018-.093-.046-.185-.026-.091-.02-.094-.046-.187-.028-.091-.028-.091-.054-.184-.007-.023.006-.035.027-.042.08-.023.074-.046.147-.067.073-.022.078-.007.15-.028.022-.006.038-.036.03-.059-.026-.091-.04-.088-.067-.18-.026-.092-.005-.098-.031-.191l-.056-.19c-.026-.092-.033-.091-.06-.182-.027-.092-.041-.088-.069-.18-.029-.099-.021-.101-.049-.193-.026-.093-.018-.094-.045-.187l-.054-.183-.055-.192c-.026-.093-.02-.094-.046-.187-.027-.093-.034-.09-.06-.182l-.056-.191c-.027-.092-.012-.097-.039-.189-.026-.091-.041-.087-.067-.179-.03-.1-.022-.102-.05-.193-.026-.093-.02-.094-.046-.187-.026-.092-.033-.09-.06-.182-.029-.099-.036-.096-.064-.188-.026-.092-.041-.088-.068-.18-.006-.022-.016-.028-.037-.022-.073.02-.082-.01-.156.011-.072.022-.064.052-.144.076-.023.006-.031-.024-.038-.047-.026-.091-.04-.088-.067-.18-.03-.1-.022-.102-.05-.194-.026-.091-.04-.087-.067-.179-.026-.093-.02-.094-.046-.187-.027-.091-.02-.094-.047-.185-.005-.018-.006-.05.015-.057Zm6.322 1.262c-.006-.064-.021-.127-.026-.19 0-.071.017-.13.018-.194.002-.064.003-.13.012-.193 0-.064.017-.13.026-.196.009-.064.019-.121.026-.187.016-.066.018-.13.034-.188.016-.065.033-.124.056-.19.018-.058.05-.118.075-.176.025-.059.066-.103.097-.162.025-.059.058-.11.09-.162.032-.06.048-.125.082-.176.04-.053.073-.112.107-.156.04-.053.099-.083.14-.127.048-.052.082-.105.13-.141.042-.044.082-.097.125-.14.049-.037.099-.082.148-.12.05-.036.099-.074.15-.112.048-.036.107-.067.157-.096.058-.03.127-.036.177-.067.058-.03.11-.051.168-.081.059-.023.11-.044.17-.065.058-.022.116-.06.175-.074.059-.023.122-.013.182-.027.06-.013.12-.029.18-.034.06-.013.12-.012.189-.018.06-.007.117-.044.178-.05.061 0 .124.02.185.02.062.002.124.02.186.022.063.01.12-.02.183-.011.063.01.125.027.187.036.055.01.117.022.18.038.062.017.12.053.175.07.055.019.118.036.174.063.057.019.12.036.175.063.056.026.106.068.163.096.056.034.106.07.155.104.049.035.114.06.163.096.049.035.105.068.157.112.041.037.086.096.13.14.042.043.092.079.136.13.042.044.086.095.129.14.036.052.087.095.123.147.036.053.043.124.071.186.037.053.087.095.116.157.029.054.042.115.064.178.029.061.057.114.079.177.021.062.057.114.079.176l.042.189c.014.062.007.135.02.198.007.064.028.125.036.188.006.064.005.128.003.192.007.064-.002.129-.003.193-.002.064.005.128-.004.193-.009.065.014.134.005.2-.009.065-.04.124-.058.181-.009.066-.032.124-.049.19-.017.057-.017.13-.041.188-.018.058-.043.116-.067.175-.025.06-.041.125-.072.185a3.07 3.07 0 0 1-.098.162c-.033.059-.083.096-.114.155-.04.053-.058.11-.098.163-.04.053-.082.097-.124.14-.04.052-.107.076-.148.12a2.27 2.27 0 0 1-.14.135c-.04.037-.081.097-.131.133-.05.038-.11.052-.167.09-.05.028-.09.088-.14.117-.06.03-.12.037-.177.067-.06.02-.11.059-.168.081a1.59 1.59 0 0 1-.17.074c-.06.014-.116.053-.177.074-.06.014-.121.013-.181.019-.06.014-.12.02-.181.034-.06.006-.12.029-.18.034-.067.006-.126.028-.189.027a1.27 1.27 0 0 1-.183.003c-.061-.002-.127-.035-.187-.038-.061-.001-.121.013-.183.003-.063-.01-.119-.044-.182-.054-.063-.01-.129.005-.184-.014-.064-.018-.125-.028-.182-.054-.055-.019-.114-.06-.17-.079-.056-.026-.117-.036-.174-.063-.056-.026-.1-.085-.156-.111-.057-.035-.12-.044-.176-.07-.05-.036-.107-.07-.157-.112-.049-.035-.086-.096-.129-.14-.049-.035-.114-.06-.164-.104-.043-.043-.072-.105-.116-.156-.042-.044-.1-.078-.135-.13-.043-.045-.064-.106-.1-.159-.037-.053-.08-.104-.108-.158-.037-.06-.08-.104-.11-.165-.028-.053-.027-.126-.057-.187-.029-.062-.08-.104-.102-.166-.021-.063-.027-.125-.049-.187-.013-.062-.013-.135-.027-.198s-.05-.115-.065-.185c-.004-.063-.003-.127-.01-.191Zm4.456-.454c-.006-.064-.029-.133-.044-.196-.014-.063-.006-.135-.027-.198-.014-.071-.037-.133-.058-.194-.029-.054-.052-.123-.08-.185a2.06 2.06 0 0 0-.102-.165c-.044-.053-.094-.096-.13-.147-.05-.043-.092-.087-.142-.13-.05-.036-.1-.078-.15-.113-.057-.034-.107-.086-.164-.112-.055-.019-.119-.044-.182-.061-.055-.01-.123-.004-.184-.005a1.442 1.442 0 0 0-.186-.014c-.06.006-.124-.02-.185-.013-.068.006-.127.03-.188.035-.06.014-.118.044-.177.067-.06.022-.11.051-.168.074-.058.03-.11.059-.158.095-.05.038-.1.083-.15.12-.04.044-.106.075-.148.118-.032.052-.072.112-.106.163-.032.06-.057.118-.08.185-.025.059-.034.124-.05.182-.016.074-.057.125-.066.19-.009.066-.017.13-.025.204-.001.063-.01.129-.01.193.006.064.038.14.044.203.006.064.005.128.011.192.015.079.015.143.03.205.02.063.072.113.093.176.023.07.044.132.073.184.036.062.071.106.108.157.037.068.066.122.11.173.043.044.093.087.143.13.044.05.107.068.156.105.057.034.108.076.164.103.056.026.113.052.175.07.056.019.123.011.187.029.063.01.123.004.185.005.06-.007.124.011.192.005.06-.007.119-.03.179-.043a.503.503 0 0 0 .178-.058c.06-.013.11-.051.168-.072.06-.03.127-.037.178-.067.05-.037.09-.098.13-.142.05-.045.109-.075.148-.135.04-.045.066-.103.097-.163.033-.051.05-.118.074-.176.024-.066.057-.126.073-.192.018-.057.049-.116.056-.19.01-.065.01-.13.012-.195.008-.065.017-.129.017-.201 0-.062-.015-.132-.021-.196Zm2.935-.159c.006-.064.005-.128.011-.191.015-.072.043-.124.058-.187.014-.063.028-.125.049-.187.014-.063.042-.124.064-.185.021-.063.042-.117.064-.179.029-.061.042-.124.071-.178a2.49 2.49 0 0 1 .094-.175c.03-.053.072-.106.108-.157.035-.053.085-.088.13-.14a.966.966 0 0 1 .121-.14c.044-.052.073-.114.115-.158.05-.044.094-.095.136-.13.05-.043.113-.06.163-.095.058-.043.1-.087.157-.113.049-.035.099-.078.149-.113.056-.027.113-.06.17-.087l.167-.079c.057-.026.12-.045.175-.062.062-.018.131-.012.186-.03.063-.017.118-.028.181-.046l.18-.03c.06-.01.125-.036.186-.037.063-.01.122.012.183.01.062-.002.123-.004.183.002.062-.002.122.013.19.019.06.005.124-.02.186-.014.058.014.117.044.176.058.06.014.118.044.178.057.06.022.122.004.181.027.059.021.118.051.177.074.051.021.11.042.168.073.059.03.108.075.158.104.05.028.11.059.16.096.05.03.108.06.159.096.05.037.09.089.14.126.049.045.09.09.132.133.041.044.099.082.14.127.042.045.09.089.132.142.034.043.065.11.099.161.033.052.075.096.107.155.032.051.065.111.097.163.026.059.066.11.09.169.026.059.018.13.035.196.025.059.065.11.081.176.018.058.018.122.028.187.016.066.032.125.041.188.009.066.034.123.041.189l.004.193c.001.064-.021.134-.02.198-.006.064.003.13-.004.192-.006.064-.02.127-.033.19-.007.063-.028.125-.042.187-.014.063-.02.127-.041.188-.022.063-.014.136-.035.197-.022.062-.066.115-.093.167-.022.063-.058.116-.087.176-.028.053-.042.124-.079.177a1.846 1.846 0 0 1-.1.158c-.035.052-.065.114-.108.165a2.846 2.846 0 0 1-.13.14c-.043.05-.098.077-.142.129-.05.043-.08.096-.13.139-.05.044-.098.078-.148.113-.05.044-.12.051-.17.086a2.39 2.39 0 0 1-.163.104c-.049.028-.1.078-.155.104-.057.027-.118.03-.182.054-.055.02-.107.07-.162.088-.063.018-.124.011-.187.029-.063.01-.118.036-.18.046a1.344 1.344 0 0 1-.181.038c-.062.001-.126.028-.187.036-.061.003-.122-.012-.182-.017-.061.002-.123-.004-.183-.003-.06-.006-.123.004-.183-.002-.069-.006-.13.004-.19-.01a1.284 1.284 0 0 1-.181-.035c-.06-.014-.117-.06-.177-.074-.06-.014-.122-.013-.18-.034-.06-.023-.109-.068-.168-.09-.058-.02-.127-.02-.179-.05-.059-.03-.118-.05-.168-.088-.05-.03-.098-.082-.15-.11-.05-.037-.108-.06-.157-.097-.05-.037-.082-.104-.132-.142-.049-.045-.108-.068-.158-.104-.041-.044-.09-.09-.132-.142-.041-.044-.065-.11-.098-.162-.04-.044-.099-.081-.139-.134-.032-.051-.05-.118-.081-.177-.033-.051-.083-.096-.107-.155-.032-.052-.041-.117-.066-.176-.025-.059-.057-.118-.074-.175-.024-.067-.057-.118-.074-.185-.018-.058-.003-.128-.02-.194-.015-.065-.056-.118-.064-.183-.01-.066-.003-.13-.012-.195 0-.064.014-.134.013-.2-.001-.063-.025-.122-.026-.194.006-.055.02-.117.026-.181Zm4.456.446c.006-.064-.001-.137-.002-.2-.002-.065.02-.135.012-.2 0-.073-.009-.138-.017-.202-.018-.058-.025-.13-.042-.196a1.796 1.796 0 0 0-.066-.183c-.033-.059-.073-.111-.098-.17-.04-.052-.074-.104-.114-.156-.042-.044-.083-.096-.124-.14-.05-.045-.09-.106-.14-.143-.05-.03-.108-.067-.165-.097-.052-.021-.12-.029-.18-.042a1.53 1.53 0 0 0-.179-.05c-.06-.007-.118-.045-.18-.05-.067-.007-.13.002-.19-.003-.061 0-.124.02-.187.029-.063.01-.118.028-.18.037a1.102 1.102 0 0 0-.173.063c-.057.026-.115.061-.17.088-.049.035-.12.051-.17.086l-.136.14a1.326 1.326 0 0 0-.116.164c-.037.052-.058.114-.086.168-.03.069-.08.111-.101.174l-.066.195c-.013.062-.035.125-.048.188-.007.062.008.144.002.208-.006.063-.02.125-.026.19 0 .08-.014.142-.013.206.009.065.05.126.058.19a.96.96 0 0 0 .034.196c.024.067.049.118.074.176.022.074.04.132.073.192.032.051.073.104.114.155.032.06.09.09.131.133.05.046.09.098.14.135.05.037.099.074.158.104.05.029.119.036.176.065.06.021.12.027.18.043.061.006.119.036.187.042.06.007.123-.004.184-.005a.502.502 0 0 0 .186-.021c.061-.001.118-.029.179-.038.063-.017.132-.01.187-.029.056-.026.108-.077.157-.113.056-.033.12-.05.171-.102.05-.035.086-.088.13-.14.042-.043.071-.105.107-.158.037-.06.08-.112.11-.173.028-.052.071-.105.094-.174.021-.063.035-.125.049-.187.02-.063.043-.124.057-.194.013-.065.013-.138.02-.2Zm3.621-2.324c.095.029.093.036.18.06.096.028.098.02.186.045l.183.052c.088.025.087.032.18.06l.176.05.184.053c.095.027.09.041.179.068.088.025.094.002.19.028.087.026.087.026.182.052.088.025.082.048.17.073.095.026.104-.004.192.02.095.029.089.051.176.076.023.006.025.024.02.047-.027.091-.012.096-.038.188-.027.091-.02.094-.046.185-.026.093-.047.087-.073.178l-.053.185-.053.184c-.006.023-.016.029-.037.023-.082-.023-.088 0-.176-.025-.08-.023-.08-.03-.16-.054-.022-.007-.04.005-.047.027-.026.093-.04.088-.066.18-.027.091-.004.097-.033.198-.026.091-.055.084-.082.175-.026.092-.01.097-.037.189-.03.1-.022.101-.048.194-.025.093-.048.086-.074.178-.026.092-.004.098-.033.198-.026.092-.018.093-.045.186-.026.093-.041.089-.067.18-.03.1-.014.105-.04.196l-.052.183c-.026.093-.041.088-.07.188-.026.092-.04.088-.067.18-.026.092.003.1-.022.193-.03.099-.058.091-.084.183-.027.091-.004.098-.03.19-.027.09-.034.09-.062.189l-.053.184c-.006.023.015.029.038.037.088.024.082.047.17.072.087.025.09.018.177.043.088.025.09.017.179.043.087.025.081.047.169.072.088.025.089.018.184.045.088.026.087.033.175.058.021.005.06-.016.066-.04.027-.092.011-.097.04-.196l.054-.192c.026-.091.042-.087.07-.187.027-.091.02-.094.047-.194.006-.022.03-.049.051-.044.088.025.083.04.172.065.088.025.09.018.178.043l.176.05c.088.025.085.033.173.058l.175.05c.088.025.087.033.175.058.021.006.02.014.014.036-.027.092.002.1-.022.184-.026.092-.034.09-.059.182-.023.084-.039.08-.065.172-.024.086-.002.092-.027.183-.024.086-.046.08-.072.17-.024.085-.01.089-.036.181l-.05.177c-.027.092-.02.094-.043.179-.026.091-.04.087-.064.171-.026.092-.034.09-.058.175-.026.091-.004.097-.029.183-.006.022-.044.045-.066.039-.088-.025-.087-.033-.175-.058-.087-.025-.084-.04-.171-.065-.088-.025-.094-.003-.182-.028s-.09-.017-.178-.042c-.088-.026-.08-.056-.168-.08-.088-.026-.094-.003-.182-.028s-.084-.04-.172-.066l-.176-.05c-.087-.025-.094-.001-.183-.026-.088-.025-.081-.048-.169-.073-.088-.025-.094-.001-.183-.026-.088-.025-.082-.048-.17-.073l-.175-.05c-.088-.025-.085-.033-.174-.058-.088-.025-.09-.017-.178-.041l-.184-.053c-.087-.025-.089-.017-.178-.042-.087-.026-.086-.033-.174-.058l-.176-.05c-.087-.026-.086-.033-.174-.058s-.094-.003-.182-.026c-.088-.025-.084-.04-.172-.066-.087-.025-.09-.017-.178-.042-.022-.007-.037-.035-.031-.06.024-.083.031-.08.058-.174.026-.091.01-.095.037-.188.027-.092.034-.09.06-.181.027-.093.034-.09.06-.184.027-.091.027-.091.052-.184.006-.023.024-.026.045-.02.08.022.087 0 .16.021.073.022.07.037.142.057.023.006.05-.012.057-.034.026-.092.011-.095.037-.188.027-.092.048-.086.076-.178l.054-.192c.026-.092.019-.094.045-.187s.011-.097.037-.188c.03-.1.036-.098.062-.19.026-.091.034-.09.06-.182l.052-.184.055-.192c.026-.091.034-.089.06-.182.026-.091.019-.094.045-.185l.055-.192c.027-.092.042-.088.067-.18.026-.092.011-.096.037-.188.03-.1.037-.098.062-.19.026-.092.034-.09.06-.18.026-.092.019-.095.045-.188.029-.1.021-.103.048-.194.026-.092.011-.097.038-.188.006-.023 0-.033-.022-.04-.073-.02-.064-.05-.138-.07-.072-.022-.081.01-.163-.014-.021-.008-.014-.038-.006-.06.026-.092.011-.097.038-.189.028-.099.036-.098.062-.19.027-.09.011-.096.038-.187.026-.093.034-.09.06-.182.026-.092.034-.09.06-.182.01-.021.025-.05.048-.044Zm10.297 4.027-.078.157-.078.157c-.04.079-.04.079-.077.157-.04.079-.027.085-.066.164l-.081.164c-.018.035-.077.052-.118.03-.095-.047-.1-.04-.2-.091-.048-.024-.094-.002-.105.055-.015.064-.036.125-.051.188-.008.068-.023.132-.038.196s-.022.131-.037.194c-.008.068-.013.128-.027.19-.011.057-.012.129-.024.185a3.52 3.52 0 0 0-.04.184c-.015.064-.005.132-.02.196-.011.057-.02.124-.03.18-.007.069-.023.133-.034.189-.007.068-.043.122-.058.185-.003.06-.018.125-.033.189l-.017.186c-.015.064-.019.125-.034.189-.01.056-.042.121-.053.178a1.777 1.777 0 0 1-.034.188c-.015.064-.005.13-.018.188-.015.064-.019.124-.026.192-.015.064-.02.124-.034.188-.011.056-.026.12-.041.184-.012.076-.033.136-.013.181.02.045.064.094.14.114.037.01.082.005.122.025.038.028.04.073.019.117-.039.079-.039.079-.08.157-.038.079-.044.075-.084.154-.04.078-.033.081-.072.16-.039.08-.019.09-.061.175-.04.079-.067.065-.106.144-.017.035-.052.054-.086.038l-.17-.084c-.082-.04-.079-.048-.161-.09-.082-.04-.093-.018-.175-.06-.081-.04-.085-.034-.166-.074-.082-.04-.072-.062-.153-.102-.09-.044-.092-.037-.175-.078-.081-.042-.089-.027-.17-.068-.082-.04-.074-.055-.157-.095l-.165-.082c-.081-.04-.089-.026-.176-.07-.082-.041-.072-.063-.153-.103l-.165-.081c-.041-.02-.067-.07-.05-.106.047-.093.067-.082.117-.183l.091-.185c.047-.093.04-.097.086-.19.046-.093.038-.097.085-.19a.086.086 0 0 1 .114-.04c.061.03.058.037.127.07.061.03.057.039.125.072.048.024.117-.014.128-.07.015-.064.016-.134.031-.198.012-.074.027-.138.034-.206.008-.031.002-.07-.034-.088-.053-.027-.111-.065-.173-.095l-.178-.088c-.054-.026-.126-.036-.188-.066-.054-.028-.105-.062-.16-.088-.054-.027-.113-.048-.167-.074-.055-.027-.1-.075-.153-.103-.054-.027-.12-.032-.175-.06-.055-.026-.109-.054-.163-.082-.075-.037-.119-.05-.171.022-.04.042-.07.09-.11.133-.037.044-.08.075-.117.119a.088.088 0 0 0 .025.137c.061.03.057.037.125.071.062.03.069.016.13.046.04.02.043.067.022.11-.047.092-.033.1-.082.199-.046.093-.06.087-.105.18-.05.1-.029.11-.075.203l-.093.185c-.022.043-.08.058-.12.038-.076-.038-.08-.03-.161-.07-.082-.04-.072-.063-.153-.103l-.157-.078c-.081-.041-.089-.026-.17-.068-.082-.04-.08-.047-.161-.089-.075-.037-.081-.022-.163-.064-.082-.04-.068-.069-.15-.11-.08-.04-.088-.027-.164-.064-.081-.04-.089-.026-.17-.067-.082-.041-.074-.055-.157-.095-.075-.038-.085-.016-.168-.056-.04-.02-.05-.088-.029-.13.04-.08.053-.072.092-.151.039-.078.032-.082.071-.16l.078-.158c.039-.079.025-.085.064-.164s.059-.069.098-.147c.021-.042.06-.067.094-.051.051.016.099.04.143.071.095.066.15.04.228-.047.049-.048.1-.084.14-.127.048-.048.073-.115.112-.158.05-.046.108-.08.153-.12.043-.05.078-.104.12-.155.048-.047.083-.1.122-.144.05-.046.084-.1.133-.148.038-.044.088-.09.136-.136.038-.044.097-.077.146-.123.04-.043.07-.108.11-.15.048-.049.09-.099.135-.139.043-.05.084-.1.133-.148l.123-.144c.049-.046.101-.083.147-.123.042-.05.07-.108.112-.158.05-.046.108-.08.147-.123.042-.05.094-.087.137-.137.049-.047.078-.104.119-.155.049-.048.105-.09.154-.137.042-.05.084-.101.137-.155.039-.044.019-.107-.029-.13-.095-.047-.091-.055-.194-.105-.034-.018-.04-.055-.019-.1.039-.078.011-.09.05-.17.039-.079.053-.071.092-.15.039-.08.039-.08.079-.157.039-.079.046-.075.089-.16.039-.078.025-.086.064-.165.017-.036.073-.044.106-.027.082.041.09.026.17.067.082.04.076.056.15.093.082.04.093.019.175.06.075.038.063.06.146.1.082.04.093.018.175.06l.156.077c.082.042.076.056.15.092.081.04.079.048.16.089.082.04.09.026.164.064.082.04.078.048.161.09.075.035.083.022.164.063.083.04.068.069.15.11l.156.078c.082.04.097.013.178.053.076.037.072.045.153.085.082.04.086.034.16.072l.165.08c.082.04.076.055.15.093.04.021.048.07.03.106Zm-2.16.548c-.089-.043-.081-.04-.17-.085-.04.044-.087.09-.126.134-.041.05-.08.094-.123.144-.045.04-.076.105-.115.148-.043.05-.088.09-.13.141-.038.043-.086.09-.125.133-.041.05-.076.104-.121.144-.042.05-.08.094-.13.14-.038.044-.09.08-.133.131-.038.044-.08.094-.125.133-.033.046-.019.124.029.148.081.04.085.034.16.072.082.04.086.033.167.073.082.04.08.048.16.09.082.04.09.026.171.066l.157.078c.048.024.083.005.093-.052.011-.056.046-.11.061-.174l.042-.184c.011-.057.008-.12.024-.185.01-.056.018-.124.03-.182.013-.063.049-.117.064-.181a4.96 4.96 0 0 1 .04-.185c.005-.06.002-.124.017-.188.012-.056.02-.124.03-.18.014-.064.042-.12.053-.179Zm1.567 5.702c.052-.07.04-.079.092-.15l.106-.14c.053-.07.07-.056.123-.126.052-.07.04-.08.093-.15l.109-.146c.023-.033.082-.048.12-.02.092.067.092.067.19.141.036.028.075.027.103-.011.058-.076.065-.073.12-.15.059-.076.064-.07.121-.147.058-.077.04-.09.097-.167.058-.077.07-.068.121-.138.058-.075.064-.072.122-.148.058-.077.052-.082.11-.158.057-.077.063-.073.12-.15l.114-.152c.057-.077.051-.082.108-.158.057-.077.051-.082.104-.152.058-.077.069-.068.127-.144.056-.077.038-.09.096-.167.058-.077.07-.068.127-.144.057-.077.064-.073.12-.15.058-.075.039-.089.097-.167.057-.076.075-.062.133-.139l.109-.148.115-.153c.058-.076.039-.09.097-.166.029-.038.025-.072-.012-.1l-.189-.14c-.036-.028-.032-.084-.004-.123.053-.07.066-.061.118-.132.053-.07.047-.075.104-.151.053-.07.047-.076.1-.146.052-.069.046-.074.099-.144.057-.077.063-.072.115-.142.024-.033.07-.058.101-.035.007.005.023.008.03.011.048.037.077.098.126.134.049.037.112.054.16.09l.147.111c.05.037.088.085.137.123.049.036.112.054.16.09l.153.114c.048.037.088.087.137.123.05.037.093.08.142.117.049.037.106.06.155.097.05.036.098.072.147.11.05.036.102.066.15.103.05.036.088.086.137.123a13.127 13.127 0 0 1 .292.22l.154.113c.049.037.082.092.131.13.05.036.107.06.152.102l.132.13.118.148c.04.049.054.119.081.17.035.057.058.113.082.17.024.058.052.109.065.169.019.064.053.119.061.185.013.06.01.127.005.183a.93.93 0 0 1-.006.186c-.009.063-.041.12-.056.177-.015.059-.02.125-.044.186-.022.054-.077.101-.11.146-.033.056-.058.116-.103.162-.034.045-.066.1-.11.147-.05.041-.109.069-.155.104-.056.038-.09.093-.147.12-.051.03-.109.057-.168.083-.059.015-.119.02-.18.035-.058.015-.116.042-.176.047-.06.005-.123-.002-.19-.003a1.053 1.053 0 0 1-.231-.034c-.074-.015-.132.062-.09.122.024.029.056.051.075.077.028.05.03.122.06.174.028.051.078.099.101.155.018.053.02.114.033.173a.955.955 0 0 1 .032.185c.007.055.014.12.017.182-.009.064-.008.124-.016.186-.016.06-.037.113-.057.177-.025.06-.059.106-.097.167-.03.057-.076.103-.107.158-.04.052-.077.102-.12.148-.043.058-.089.104-.127.145-.056.048-.082.109-.132.15-.057.036-.122.049-.184.081-.052.032-.11.058-.169.085a1.158 1.158 0 0 1-.365.095c-.065.011-.124.026-.19.026-.062-.006-.127.004-.19-.002-.061-.007-.119-.03-.183-.048-.057-.012-.115-.036-.168-.055-.051-.019-.099-.044-.157-.068-.052-.019-.114-.025-.161-.051-.048-.025-.087-.076-.14-.106-.048-.025-.1-.044-.154-.074-.042-.032-.096-.062-.139-.094a1.176 1.176 0 0 1-.144-.086c-.05-.037-.093-.08-.142-.117-.043-.031-.087-.075-.135-.112-.05-.036-.096-.061-.145-.097l-.146-.11c-.043-.032-.097-.062-.145-.099-.049-.036-.101-.055-.15-.092-.049-.037-.093-.08-.136-.112-.049-.036-.082-.092-.131-.13a12.509 12.509 0 0 0-.14-.104c-.05-.037-.102-.056-.15-.092a15.09 15.09 0 0 1-.14-.106c-.05-.036-.093-.079-.142-.116-.043-.033-.087-.075-.136-.112-.049-.036-.11-.042-.159-.079-.049-.036-.088-.086-.13-.118l-.002-.01c-.027-.024-.032-.066-.003-.105Zm2.916-.795c-.053.07-.04.079-.093.15l-.105.14c-.058.076-.076.062-.129.133-.052.07-.04.078-.092.149l-.11.147c-.053.07-.04.078-.093.149-.053.07-.06.065-.112.136-.029.038-.024.082.006.106.043.031.082.081.124.113.043.031.087.075.13.106.042.033.095.052.144.088.042.031.08.07.129.107.043.031.085.064.133.089.06.034.117.047.17.066.067.01.13.029.19.024a.815.815 0 0 0 .182-.053.597.597 0 0 0 .154-.104.855.855 0 0 0 .127-.144c.042-.058.094-.1.125-.154.026-.06.029-.128.044-.186.014-.069.029-.128.021-.194a.654.654 0 0 0-.044-.182c-.028-.052-.082-.093-.132-.14-.038-.04-.062-.097-.106-.139-.042-.032-.086-.075-.13-.106a1.117 1.117 0 0 1-.135-.112c-.048-.036-.105-.049-.154-.085-.042-.033-.086-.075-.129-.107-.035-.028-.087-.036-.115.003Zm.67-.894c-.03.038-.013.08.02.114.048.036.102.066.15.103.049.036.089.096.138.133.049.036.107.06.155.096a.462.462 0 0 0 .13.068c.059.024.121.03.183.036a.648.648 0 0 0 .183-.002.701.701 0 0 0 .174-.068c.052-.031.114-.064.153-.114a.631.631 0 0 0 .118-.17c.03-.067.039-.141.048-.204.014-.069.027-.14.014-.21a.495.495 0 0 0-.094-.179c-.04-.049-.095-.09-.139-.133-.05-.047-.089-.096-.139-.144a1.525 1.525 0 0 1-.148-.12c-.055-.042-.108-.072-.158-.118-.036-.028-.089-.008-.114.025-.057.076-.069.068-.126.144-.053.07-.034.084-.092.16-.056.077-.07.068-.122.137-.057.078-.064.073-.12.15-.053.07-.035.084-.092.16-.065.07-.071.065-.123.136Zm8.322 4.615-.127.12-.128.12-.128.12c-.064.06-.054.072-.118.132l-.135.125c-.028.028-.09.021-.121-.012-.073-.078-.08-.073-.157-.156-.036-.039-.086-.034-.117.016-.036.056-.076.104-.112.16-.032.06-.068.115-.103.169-.037.055-.068.115-.103.17-.03.06-.055.116-.092.171-.03.049-.056.116-.086.164l-.103.16c-.036.055-.05.12-.087.175-.03.05-.061.11-.091.16-.031.06-.068.115-.098.164-.03.06-.083.099-.118.153a1.182 1.182 0 0 1-.098.164 4.91 4.91 0 0 1-.08.17c-.036.055-.061.11-.098.164-.03.049-.083.099-.113.148-.031.06-.061.109-.097.164-.037.055-.05.122-.082.17-.036.056-.062.111-.092.171-.036.055-.061.11-.096.165l-.103.159c-.036.066-.079.115-.075.164a.2.2 0 0 0 .09.154c.033.023.075.034.107.068.025.039.012.083-.023.116l-.128.12c-.064.06-.069.054-.133.114-.064.06-.059.065-.123.125s-.049.077-.118.143c-.064.06-.084.038-.148.098-.028.028-.067.033-.094.005l-.13-.139c-.063-.066-.056-.073-.12-.14-.062-.066-.08-.05-.142-.116-.063-.066-.07-.061-.13-.128-.063-.066-.046-.082-.109-.149-.067-.072-.073-.067-.135-.133-.063-.066-.074-.056-.137-.123-.062-.066-.051-.078-.114-.144l-.125-.133c-.063-.066-.074-.055-.142-.128-.063-.066-.045-.083-.108-.15l-.125-.132c-.032-.033-.04-.088-.01-.115.075-.07.091-.055.173-.131.075-.072.075-.072.152-.142.075-.07.07-.076.145-.146.075-.072.07-.077.145-.148a.088.088 0 0 1 .122 0c.047.051.04.056.093.111.046.05.041.057.093.112.036.039.114.029.144-.021.036-.056.061-.12.098-.176.036-.067.073-.12.104-.18.017-.028.025-.066 0-.095-.041-.044-.083-.1-.13-.149l-.135-.144c-.041-.044-.106-.078-.153-.128-.041-.044-.077-.094-.119-.14-.041-.045-.089-.082-.13-.127-.042-.044-.067-.106-.108-.15-.041-.044-.1-.072-.142-.116l-.125-.133c-.058-.06-.094-.09-.168-.04-.052.027-.097.06-.148.088-.052.026-.102.043-.153.07a.088.088 0 0 0-.024.136c.046.05.041.057.093.11.047.051.059.04.105.09.031.033.018.078-.018.11-.075.072-.065.083-.146.158-.075.072-.087.06-.162.13-.082.077-.065.094-.142.165-.075.072-.075.072-.152.142-.035.032-.095.027-.126-.006-.058-.062-.064-.057-.126-.123-.062-.067-.045-.083-.108-.15l-.12-.128c-.063-.066-.074-.056-.137-.123-.062-.066-.056-.071-.119-.139-.058-.061-.069-.05-.132-.116-.062-.067-.038-.09-.101-.156s-.074-.056-.132-.117c-.063-.066-.074-.055-.136-.123-.063-.066-.052-.077-.113-.144-.058-.06-.076-.044-.137-.111-.031-.033-.018-.1.017-.132.065-.06.075-.049.139-.11.063-.06.058-.066.122-.125l.128-.12c.064-.06.054-.072.118-.132.064-.06.08-.044.144-.102.035-.033.08-.044.106-.017a.536.536 0 0 1 .109.117c.066.094.128.089.23.035.062-.028.124-.044.175-.07.063-.028.11-.082.16-.11.063-.027.13-.037.186-.058.057-.033.11-.07.166-.103.062-.027.114-.065.164-.093.063-.028.114-.065.176-.092.051-.027.112-.053.175-.081.052-.026.118-.037.18-.064.051-.028.104-.077.155-.103.063-.027.12-.06.176-.081.057-.033.114-.066.177-.093l.165-.092c.063-.027.124-.044.18-.065.057-.033.103-.077.161-.11.062-.025.13-.037.18-.063.057-.033.119-.049.176-.082.063-.026.11-.071.166-.102.063-.027.13-.05.192-.076.058-.032.114-.065.182-.097.051-.028.055-.093.017-.132-.072-.078-.066-.083-.145-.167-.027-.028-.019-.067.016-.1.064-.06.043-.082.108-.142.064-.06.074-.049.14-.11l.127-.12c.064-.06.07-.055.138-.119.064-.06.054-.071.118-.131.029-.028.084-.017.11.012.062.067.074.055.136.122.063.066.051.078.108.139.062.066.08.05.143.117.057.061.04.077.102.144.063.066.08.05.143.117l.12.127c.064.067.051.078.109.14.062.066.056.071.119.138.063.066.074.055.132.116.062.067.056.073.119.14.057.06.069.05.131.116.063.067.04.09.102.156l.12.128c.063.066.087.045.148.111.058.062.052.067.114.133.063.067.068.062.126.122l.125.133c.063.067.052.078.108.139.029.032.02.083-.009.109Zm-2.216-.238-.13-.14c-.052.028-.114.055-.165.082-.056.033-.107.06-.165.092-.056.02-.108.07-.16.097-.056.033-.112.054-.17.087-.051.028-.113.054-.164.082-.057.032-.11.07-.166.091-.056.033-.108.06-.17.087-.052.027-.113.042-.17.075-.051.027-.108.06-.164.081-.046.033-.061.11-.025.148.063.067.068.062.125.123.063.067.07.06.13.128.063.067.057.073.12.14.063.066.074.056.137.121l.12.128c.037.039.075.034.105-.016s.083-.088.118-.142c.037-.055.067-.104.103-.16.03-.048.05-.108.087-.164.03-.049.061-.109.091-.159.037-.055.088-.093.124-.148.03-.049.067-.104.103-.16.025-.054.045-.115.08-.17.03-.049.062-.11.092-.159.038-.052.084-.095.114-.144Z" fill="var(--mooBlack)"></path>
<path d="M23.176 29.137a4.2 4.2 0 0 0 .68.381c2.458-6.768 6.605-12.838 12.196-17.683 7.856-6.81 17.696-10.469 27.99-10.469 1.033 0 2.073.038 3.115.112 11.412.815 21.825 6.025 29.319 14.671 4.519 5.214 7.647 11.3 9.242 17.811.392-.26.801-.505 1.226-.738-1.675-6.565-4.868-12.7-9.435-17.968C89.776 6.332 79.032.954 67.255.114c-20.007-1.427-37.89 10.763-44.567 28.671.165.113.328.229.488.352Z" fill="var(--mooBlack)"></path>
<path d="M40.301 31.286a27.052 27.052 0 0 1 6.07-7.544c4.967-4.304 11.187-6.617 17.694-6.617.653 0 1.31.023 1.97.07 10.247.732 18.77 7.107 22.744 15.864l.264.031c.437.039.872.089 1.306.15-4.021-9.58-13.164-16.619-24.218-17.408-7.58-.54-14.913 1.901-20.656 6.877a28.44 28.44 0 0 0-6.345 7.867c.415.2.807.438 1.171.71Z" fill="var(--mooBlack)"></path>
<path d="M61.832 22.035v.127c0 .06-.006.06-.006.126 0 .061.011.061.011.121v.127c0 .065-.006.065-.006.127 0 .06-.012.06-.012.126 0 .06.007.06.007.126 0 .061-.007.061-.007.121 0 .066.007.066.007.126 0 .035-.029.055-.068.055-.074 0-.074-.005-.148-.005s-.074.005-.148.005-.074.015-.148.015-.074-.005-.153-.005c-.074 0-.074-.01-.148-.01-.034 0-.056-.02-.056-.055 0-.06-.012-.06-.012-.126 0-.06.007-.06.007-.126 0-.06-.012-.06-.012-.127 0-.035-.022-.065-.062-.065h-.586c-.063 0-.063.01-.13.01h-.131c-.04 0-.063.02-.063.055 0 .066-.011.066-.011.127 0 .066-.006.066-.006.126 0 .066.006.066.006.126 0 .066-.011.066-.011.126 0 .067.006.067.006.132 0 .03.04.06.08.06h.29c.074 0 .074.005.142.005h.148c.074 0 .074-.015.148-.015.068 0 .068.015.142.015.04 0 .073.02.073.055v.112c0 .05.005.05.005.107 0 .055-.01.055-.01.111v.11c0 .057.005.057.005.112 0 .035-.033.06-.074.06h-.148c-.067 0-.067.005-.141.005h-.148c-.074 0-.074.006-.142.006h-.296c-.034 0-.063.02-.063.051 0 .065-.011.065-.011.132 0 .065.023.065.023.13 0 .067-.03.067-.03.132v.131c0 .067.012.067.012.132 0 .035.034.05.068.05.074 0 .074.01.148.01s.074-.005.148-.005h.148c.074 0 .074-.005.148-.005s.103.005.177.005.074.005.148.005c.04 0 .079-.025.079-.06 0-.065-.012-.065-.012-.137 0-.065.012-.065.012-.131 0-.072-.018-.072-.018-.137 0-.03.04-.05.074-.05.074 0 .074-.005.148-.005s.074.005.148.005.074-.005.153-.005c.074 0 .074-.01.148-.01s.074.015.148.015c.034 0 .056.02.056.05v.233c0 .06.018.06.018.116 0 .06.006.06.006.116v.117c0 .062-.017.062-.017.122 0 .055.006.055.006.116 0 .055-.006.055-.006.117 0 .055.011.055.011.117 0 .055.006.055.006.116 0 .03-.045.067-.079.067-.069 0-.069-.005-.143-.005-.067 0-.067-.01-.136-.01h-.137c-.074 0-.074.005-.142.005-.068 0-.068-.005-.136-.005h-.142c-.068 0-.068.02-.137.02s-.068-.015-.137-.015c-.074 0-.108-.005-.177-.005-.069 0-.067.01-.136.01h-.142c-.069 0-.069-.005-.137-.005-.067 0-.067.01-.136.01h-.143c-.068 0-.068-.005-.137-.005s-.068-.005-.142-.005c-.068 0-.068.005-.137.005-.067 0-.067-.005-.136-.005-.074 0-.074.01-.142.01-.069 0-.069-.01-.137-.01-.069 0-.069-.005-.141-.005-.068 0-.068.02-.137.02-.068 0-.068-.02-.137-.02-.04 0-.074-.02-.074-.05 0-.07-.006-.07-.006-.137 0-.066.006-.066.006-.132 0-.07.018-.07.018-.137 0-.065-.018-.065-.018-.136 0-.03.034-.067.074-.067.074 0 .074.005.153.005a.06.06 0 0 0 .063-.06c0-.061.011-.061.011-.117 0-.06-.017-.06-.017-.121 0-.06.006-.06.006-.122 0-.061.006-.061.006-.117 0-.061-.011-.061-.011-.121s.017-.06.017-.122c0-.061-.006-.06-.006-.117v-.121c0-.06.007-.06.007-.122 0-.055-.007-.055-.007-.116 0-.06-.006-.06-.006-.122v-.122c0-.055.011-.055.011-.116 0-.06-.017-.06-.017-.122s.011-.062.011-.122v-.238c0-.06.006-.06.006-.117 0-.061-.006-.061-.006-.121 0-.035-.034-.066-.068-.066h-.153c-.04 0-.067-.025-.067-.055 0-.071.004-.071.004-.137 0-.071.007-.071.007-.136 0-.072-.007-.072-.007-.137 0-.065-.005-.065-.005-.137 0-.035.03-.05.068-.05.068 0 .068-.01.137-.01h.132c.067 0 .067-.005.136-.005.068 0 .068.005.137.005h.267c.068 0 .068.005.137.005s.068-.01.137-.01h.136c.063 0 .063-.005.13-.005.07 0 .07.021.138.021s.068-.005.136-.005.068-.005.137-.005c.063 0 .063-.005.13-.005h.194c.067 0 .067.015.136.015.063 0 .063-.02.13-.02.07 0 .07.01.137.01.068 0 .068.004.137.004.068 0 .068-.01.137-.01h.13c.068 0 .068.005.137.005h.137c.036.005.071.03.071.065Zm2.793.031v-.01c0-.036.045-.06.085-.06.07 0 .07-.016.144-.016.073 0 .073.02.141.02.074 0 .074-.01.148-.01.068 0 .068-.01.142-.01.04 0 .08.04.08.075 0 .06-.006.06-.006.127 0 .065.006.065.006.127v.13c0 .062-.006.062-.006.127v.127c0 .065-.011.065-.011.125 0 .066.017.066.017.132v.126c0 .035-.04.056-.08.056-.051 0-.103.02-.153.02-.052 0-.103-.01-.153-.01-.052 0-.103-.01-.153-.01-.051 0-.103.01-.153.01-.023 0-.057-.03-.063-.056a.768.768 0 0 0-.056-.11c-.03-.035-.045-.075-.08-.107-.033-.03-.073-.051-.113-.075-.04-.02-.08-.045-.12-.06-.045-.015-.096-.005-.141-.015-.045-.005-.09-.025-.137-.025-.051 0-.097 0-.142.005-.045.01-.085.045-.119.065a.366.366 0 0 0-.103.082c-.029.035-.069.065-.074.105-.005.04.018.081.03.117.017.04.028.075.062.106.029.03.068.057.114.072.04.015.085.02.125.035.04.01.08.025.126.04.04.01.079.035.119.045.04.015.079.03.125.045.04.01.08.02.126.035.04.01.08.02.119.035.04.01.074.03.114.047l.114.045c.034.015.074.025.114.04.04.015.074.035.114.05.04.02.086.03.126.05.04.02.056.062.09.087.04.03.068.055.103.08.029.03.063.06.085.09.03.03.045.066.068.102.023.035.056.065.074.107.011.035.018.075.029.117.011.04.023.075.029.116a.78.78 0 0 1 .006.122c0 .04-.006.081-.011.121 0 .035.017.08.011.122-.006.04-.018.08-.029.122-.006.04-.029.075-.045.116a.768.768 0 0 1-.04.117c-.018.04-.04.075-.063.112-.022.035-.063.065-.09.095-.029.03-.057.065-.085.09-.034.03-.074.056-.108.082-.04.025-.074.045-.114.065-.04.025-.08.04-.126.06-.04.015-.079.035-.125.05l-.13.03c-.046.01-.091.02-.137.026-.045.005-.092.005-.142.01h-.126c-.045 0-.085.02-.13.015h-.13c-.04-.005-.086-.015-.126-.02-.051-.005-.096-.026-.142-.04-.051-.01-.102-.006-.148-.02-.045-.016-.085-.05-.13-.07-.04-.026-.085-.041-.125-.071-.046-.035-.108-.01-.108.045v.056c0 .036-.04.06-.08.06-.073 0-.073.01-.141.01-.074 0-.074-.01-.148-.01h-.142c-.074 0-.074.01-.148.01-.04 0-.074-.034-.074-.07 0-.06-.006-.06-.006-.121 0-.06.011-.06.011-.122 0-.06-.006-.06-.006-.12s.018-.06.018-.122c0-.06-.023-.06-.023-.121 0-.06.023-.06.023-.12 0-.067-.018-.067-.018-.128 0-.06.011-.06.011-.121 0-.062-.022-.06-.022-.122 0-.035.045-.071.085-.071.063 0 .063.005.125.005.063 0 .063.01.126.01s.063-.01.119-.01h.125c.063 0 .063.01.126.01.027 0 .056.01.068.035.01.035.033.066.051.101.017.036.034.07.056.107.023.03.046.071.074.095.034.03.068.06.103.08.04.02.08.04.12.056.04.015.085.02.13.03.04.01.085.005.13.01s.09.005.13.005c.046-.005.097.01.137.005.046-.01.08-.04.12-.055.045-.015.085-.025.119-.05a.182.182 0 0 0 .079-.09.179.179 0 0 0 .034-.112.28.28 0 0 0-.086-.219c-.029-.025-.062-.055-.103-.07-.045-.021-.091-.03-.13-.046-.045-.015-.09-.025-.13-.04-.046-.015-.09-.025-.13-.04-.046-.016-.091-.026-.131-.04-.045-.016-.08-.047-.126-.06-.04-.016-.096-.02-.136-.036-.046-.015-.097-.025-.137-.045a.955.955 0 0 1-.13-.055c-.046-.015-.086-.045-.126-.066a1.21 1.21 0 0 1-.12-.071c-.04-.025-.073-.055-.107-.08-.034-.03-.08-.045-.114-.076-.029-.03-.045-.071-.074-.106-.023-.035-.063-.065-.08-.1-.022-.036-.033-.076-.05-.117-.018-.04-.023-.08-.034-.122-.012-.04-.028-.081-.034-.121-.007-.04.006-.08.006-.122 0-.04-.011-.087-.006-.127.006-.04.006-.08.011-.121.011-.04.045-.076.063-.117.011-.04.017-.08.04-.122.017-.035.034-.075.056-.11a1.32 1.32 0 0 1 .086-.095c.028-.035.062-.067.09-.097.034-.025.074-.05.108-.075.04-.025.074-.05.114-.075.04-.02.079-.04.119-.056.045-.015.08-.04.12-.055.044-.01.084-.015.13-.025.04-.01.079-.035.125-.04.04-.01.085-.005.132-.01.045-.005.085-.02.13-.02h.13l.137.015c.04.005.086.01.13.02.046.01.08.025.12.035a.67.67 0 0 1 .108.05c.034.02.063.045.096.072.046.031.108-.004.108-.06Zm4.995-.051c0 .06-.005.06-.005.122v.117c0 .06-.018.06-.018.121 0 .062.011.06.011.122 0 .061.007.061.007.122 0 .06-.012.06-.012.121 0 .06.007.06.007.122 0 .055.006.055.006.117v.121c0 .06-.007.06-.007.122 0 .02-.022.045-.045.045-.074 0-.074-.005-.148-.005-.067 0-.067-.005-.141-.005-.074 0-.074.005-.142.005h-.29c-.022 0-.034-.02-.034-.04 0-.055-.017-.055-.017-.106 0-.055.005-.055.005-.111v-.107c0-.055-.005-.055-.005-.111 0-.02-.011-.05-.04-.05-.052 0-.108.02-.16.02-.056 0-.108-.01-.164-.005-.017 0-.04.05-.04.075v.121c0 .04-.023.08-.023.12 0 .041.012.082.012.117 0 .04.01.082.01.122 0 .04-.005.08-.005.122v.122c0 .04.006.08.006.121 0 .045-.006.085-.006.127v.248c0 .04-.018.08-.018.12 0 .04.011.08.011.122v.127c0 .04-.006.08-.006.122 0 .04.006.081.006.126 0 .04.012.08.012.122v.121c0 .046-.018.046-.018.086 0 .02.029.035.052.035.056 0 .056.015.107.015.052 0 .052-.015.103-.015.03 0 .04.025.04.045 0 .06.007.06.007.117 0 .06-.007.06-.007.116 0 .06.018.06.018.117v.117c0 .06-.011.06-.011.12 0 .02-.018.04-.046.04-.067 0-.067-.01-.136-.01-.063 0-.063.005-.13.005-.068 0-.068-.01-.137-.01-.07 0-.07.01-.137.01-.068 0-.068-.005-.137-.005-.067 0-.067.01-.136.01-.068 0-.068-.005-.137-.005-.07 0-.07.01-.137.01-.068 0-.068-.005-.137-.005-.067 0-.067-.005-.136-.005-.068 0-.068.005-.137.005s-.069-.005-.137-.005c-.029 0-.045-.015-.045-.035 0-.06-.011-.06-.011-.115 0-.06.022-.06.022-.117 0-.06-.01-.06-.01-.117v-.233c0-.025.017-.03.044-.03.103 0 .103-.02.2-.02.029 0 .04-.01.04-.03 0-.06.005-.06.005-.122 0-.06-.005-.06-.005-.125 0-.062.011-.062.011-.122v-.243c0-.06-.006-.06-.006-.122 0-.06-.005-.06-.005-.127 0-.06.011-.06.011-.121 0-.06.006-.06.006-.122 0-.061-.022-.061-.022-.121s.022-.06.022-.122v-.127c0-.06-.017-.06-.017-.122 0-.06.011-.06.011-.121 0-.062-.006-.062-.006-.122v-.121c0-.06-.005-.06-.005-.127 0-.06-.007-.06-.007-.122 0-.02-.006-.04-.033-.04-.074 0-.074-.005-.153-.005-.074 0-.074.005-.153.005-.023 0-.045.02-.045.04 0 .055-.007.055-.007.105v.112c0 .05.011.05.011.107 0 .055-.006.055-.006.105 0 .025-.017.035-.045.035-.069 0-.069.005-.142.005-.074 0-.074.005-.148.005s-.074-.01-.148-.01-.074.01-.141.01c-.074 0-.074-.005-.148-.005-.023 0-.04-.015-.04-.04 0-.06-.007-.06-.007-.116 0-.06-.011-.06-.011-.122v-.244c0-.06.011-.06.011-.121v-.122c0-.06.007-.06.007-.121v-.117c0-.06.006-.06.006-.122v-.121c0-.026.011-.046.034-.046.067 0 .067.015.136.015.063 0 .063-.015.13-.015.07 0 .07.01.138.01.067 0 .067-.01.13-.01.069 0 .069.01.137.01.067 0 .067-.015.136-.015.063 0 .063.022.13.022.069 0 .069-.015.137-.015.07 0 .068-.005.131-.005.068 0 .068.01.137.01s.067.005.136.005c.063 0 .063-.015.13-.015.069 0 .069.021.138.021.067 0 .067-.015.13-.015.068 0 .068.005.137.005.067 0 .067-.005.136-.005h.268c.067 0 .067.005.13.005h.273c.068 0 .068-.005.13-.005.07 0 .07.01.138.01.067 0 .067-.015.136-.015.063 0 .063.015.13.015.068 0 .068-.015.137-.015.022 0 .057.026.057.051Zm1.49 3.162c.007.02.007.04.007.067v.02c0 .025-.006.045-.011.075l-.006.01c0 .005 0 .015-.007.025a.18.18 0 0 1-.011.055c-.011.025-.029.045-.045.066l-.007.01a.78.78 0 0 1-.062.065c-.023.02-.052.035-.08.05-.028.015-.056.03-.085.04-.01 0-.017.005-.028.01a.347.347 0 0 1-.068.02c-.029.005-.063.005-.097.005-.028 0-.062-.005-.096-.01a.459.459 0 0 1-.09-.02c-.023-.005-.04-.02-.057-.03l-.029-.015c-.011-.005-.017-.01-.029-.015-.017-.01-.04-.02-.051-.035a.26.26 0 0 1-.063-.066.261.261 0 0 1-.04-.071l-.006-.005c0-.01-.005-.02-.011-.025-.012-.02-.023-.04-.023-.055a.395.395 0 0 1-.011-.085c0-.02.006-.04.01-.06 0-.01.006-.016.006-.026 0-.01.006-.02.006-.03.006-.02.006-.04.018-.055.005-.02.022-.035.034-.051a.043.043 0 0 1 .017-.02l.005-.01c.018-.02.034-.04.057-.062a.215.215 0 0 1 .056-.035c.006-.005.018-.01.023-.015.01-.005.017-.01.029-.015a.137.137 0 0 1 .05-.03c.023-.01.041-.01.064-.015.01 0 .022 0 .034-.005.028-.006.062-.006.096-.006h.04c.023 0 .04-.005.063 0 .017.006.034.01.051.02l.034.016c.011 0 .018.005.029.005.023.01.045.02.063.03.022.015.051.03.079.05l.051.061s.006.005.006.01c.007.005.012.015.023.02.011.02.023.036.034.052a.36.36 0 0 1 .029.085ZM59.351 28.09c0 .062-.006.062-.006.122v.122c0 .06.018.06.018.122 0 .06-.012.06-.012.121v.127c0 .06-.006.06-.006.12s.006.06.006.122c0 .06.012.06.012.122 0 .06-.012.06-.012.12s-.006.06-.006.127c0 .06.018.06.018.121 0 .06-.007.06-.007.12 0 .062-.011.062-.011.122s.018.06.018.122c0 .06-.012.06-.012.122 0 .065.012.065.012.125s-.023.06-.023.122c0 .06.023.06.023.122 0 .061-.018.06-.018.121 0 .062.011.062.011.122v.125c0 .062.007.062.007.122s-.018.06-.018.122c0 .06-.006.06-.006.121 0 .035.045.067.079.067.056 0 .056-.01.119-.01.056 0 .056.005.114.005h.114c.04 0 .063.03.063.06 0 .071-.006.071-.006.137 0 .07.006.07.006.136 0 .067.006.067.006.137 0 .066-.006.066-.006.137 0 .03-.023.05-.063.05-.069 0-.069.01-.136.01-.075 0-.075.005-.142.005-.07 0-.07-.015-.143-.015-.068 0-.068.02-.137.02-.074 0-.074-.005-.142-.005-.069 0-.069-.01-.141-.01-.068 0-.068-.005-.137-.005h-.142c-.068 0-.068.02-.142.02-.069 0-.069-.005-.136-.005-.074 0-.074.005-.142.005-.068 0-.068-.015-.142-.015-.067 0-.067.01-.136.01h-.142c-.04 0-.063-.035-.063-.065 0-.072-.011-.072-.011-.137v-.137c0-.065.011-.065.011-.131 0-.07-.017-.07-.017-.137 0-.035.04-.06.08-.06.056 0 .056.01.114.01.056 0 .056-.015.12-.015.056 0 .056.005.113.005a.06.06 0 0 0 .063-.06v-.122c0-.06.011-.06.011-.122 0-.061-.017-.06-.017-.121v-.122c0-.06.017-.06.017-.122 0-.061-.017-.06-.017-.121v-.122c0-.06.006-.06.006-.122v-.121c0-.06-.006-.06-.006-.122v-.122c0-.061.011-.061.011-.121s-.006-.06-.006-.122c0-.06.017-.06.017-.122 0-.06-.022-.06-.022-.121 0-.06.011-.06.011-.122 0-.061.011-.06.011-.122v-.121c0-.035-.045-.056-.08-.056-.063 0-.063-.015-.12-.015-.056 0-.056.015-.118.015-.057 0-.057.006-.114.006-.04 0-.057-.04-.057-.07 0-.067-.011-.067-.011-.127 0-.066-.011-.066-.011-.127v-.125c0-.067.022-.067.022-.127 0-.065-.017-.065-.017-.127 0-.035.033-.065.074-.065.067 0 .067-.005.136-.005.063 0 .063.005.13.005.069 0 .069.01.138.01.067 0 .067.005.136.005.07 0 .068-.005.137-.005.063 0 .063-.015.13-.015h.274c.069 0 .069.015.136.015.068 0 .068-.01.13-.01.069 0 .069.01.138.01.038.001.067.023.067.058Zm1.974 1.254c0 .04.007.086.023.126.006.04.006.086.023.127a.431.431 0 0 0 .182.197c.04.025.067.06.114.075a.699.699 0 0 0 .285.06c.05 0 .102-.015.142-.02.052-.01.097-.02.142-.035a.598.598 0 0 0 .12-.075.424.424 0 0 0 .102-.092c.029-.03.04-.075.063-.116.017-.04.04-.076.051-.122.011-.04.006-.08.006-.127 0-.045 0-.085-.017-.125-.011-.045-.018-.087-.034-.127-.023-.035-.056-.065-.085-.1-.03-.035-.045-.075-.086-.107-.033-.025-.085-.035-.125-.051a.537.537 0 0 0-.137-.04c-.045-.01-.096-.025-.143-.025a.595.595 0 0 0-.141.015c-.052.01-.092.025-.137.04a.447.447 0 0 0-.12.07.32.32 0 0 0-.096.09c-.029.035-.068.067-.085.107-.018.035-.011.087-.023.127a.313.313 0 0 0-.023.128Zm-1.12 0v-.122c.007-.045.03-.08.034-.122.012-.04.018-.081.03-.121.01-.035.017-.08.04-.117.01-.04.04-.071.062-.107.018-.04.045-.07.068-.106.022-.035.051-.065.08-.1.029-.03.045-.067.079-.096.029-.03.068-.055.103-.086a.697.697 0 0 1 .096-.076c.04-.025.08-.045.115-.071.04-.02.067-.05.114-.07.04-.02.079-.03.125-.045.045-.016.08-.036.126-.05.04-.016.09-.026.13-.036a.978.978 0 0 1 .137-.02c.04-.01.085-.03.125-.035.052-.005.097.015.142.01.045 0 .09-.02.136-.02.046 0 .086 0 .137.005.04 0 .085.015.126.02l.136.015c.04.01.09.015.13.025.046.01.086.025.131.04.04.01.08.025.12.04.045.015.078.046.119.06.033.02.09.026.125.046.04.025.074.05.108.075a.43.43 0 0 1 .096.08c.034.025.068.056.103.08.03.03.052.066.074.096.03.035.063.06.086.096.028.03.045.072.067.107.018.035.03.075.04.112.018.04.04.07.052.11.011.04.022.082.034.116.006.04.022.081.022.121a.728.728 0 0 1 .007.122v.122c-.007.045-.023.085-.03.125-.01.04-.006.08-.022.122-.011.04-.034.075-.051.116l-.052.117a1.941 1.941 0 0 1-.074.111c-.017.036-.034.07-.056.106-.023.035-.052.07-.074.106-.029.035-.052.076-.08.106-.04.05-.04.05-.08.096-.04.05-.04.05-.085.102-.04.045-.04.045-.079.095-.04.05-.045.045-.091.092-.04.05-.04.055-.08.1-.04.05-.023.06-.068.106l-.08.101c-.04.05-.044.045-.085.09-.045.05-.051.046-.09.096-.04.05-.029.056-.068.106-.045.05-.051.046-.091.096s-.052.04-.09.086c-.046.05-.034.06-.075.105-.04.05-.033.056-.073.107-.012.01-.034.005-.057.005-.068 0-.068.005-.142.005-.074 0-.074.01-.143.01h-.437c-.068 0-.068-.01-.148-.01-.068 0-.068.015-.137.015-.051 0-.08-.06-.051-.096.045-.046.045-.04.085-.09.04-.046.045-.046.079-.091.045-.045.045-.05.085-.095.04-.045.04-.045.074-.096.04-.046.045-.046.09-.091.034-.045.023-.055.063-.102.04-.05.051-.04.09-.09.04-.045.03-.055.068-.102l.074-.095c.045-.045.063-.035.103-.085.023-.03-.006-.08-.051-.08a1.07 1.07 0 0 1-.137-.01c-.045 0-.097 0-.142-.01-.04-.006-.085-.026-.13-.036-.046-.01-.086-.015-.13-.03-.046-.01-.086-.025-.126-.04a.952.952 0 0 1-.12-.066c-.04-.02-.085-.036-.118-.056a.703.703 0 0 1-.108-.081c-.034-.025-.063-.055-.103-.085-.029-.03-.063-.056-.09-.087-.03-.035-.046-.07-.075-.105-.022-.035-.05-.066-.067-.107-.023-.035-.052-.07-.063-.105a.761.761 0 0 1-.045-.117.494.494 0 0 1-.04-.122c-.012-.04 0-.08-.007-.121-.008-.04-.024-.08-.024-.12Zm5.057 0c0 .04.007.086.023.126.006.04.006.086.022.127.018.04.046.075.074.11a.43.43 0 0 0 .108.087c.04.025.068.06.114.075.046.02.09.04.137.045a.7.7 0 0 0 .148.015c.051 0 .103-.015.142-.02.051-.01.096-.02.141-.035a.595.595 0 0 0 .12-.075.424.424 0 0 0 .103-.092c.028-.03.04-.075.062-.116.018-.04.04-.076.052-.122.01-.04.006-.08.006-.127 0-.045 0-.085-.018-.125-.01-.045-.017-.087-.033-.127-.023-.035-.057-.065-.086-.1-.029-.035-.045-.075-.085-.107-.034-.025-.085-.035-.126-.051a.536.536 0 0 0-.136-.04c-.045-.01-.097-.025-.142-.025a.595.595 0 0 0-.142.015c-.051.01-.091.025-.136.04a.447.447 0 0 0-.12.07.321.321 0 0 0-.096.09c-.029.035-.068.067-.085.107-.018.035-.012.087-.023.127a.313.313 0 0 0-.024.128Zm-1.12 0v-.122c.007-.045.03-.08.034-.122.011-.04.018-.081.029-.121.011-.035.017-.08.04-.117.011-.04.04-.071.063-.107.017-.04.045-.07.067-.106.023-.035.052-.065.08-.1.03-.03.046-.067.08-.096.029-.03.068-.055.103-.086a.594.594 0 0 1 .096-.076c.04-.025.08-.045.114-.071.04-.02.068-.05.115-.07.04-.02.079-.03.125-.045.045-.016.079-.036.125-.05.04-.016.09-.026.13-.036a.976.976 0 0 1 .138-.02c.04-.01.085-.03.125-.035.051-.005.097.015.142.01.045 0 .09-.02.136-.02.046 0 .086 0 .137.005.04 0 .085.015.126.02l.136.015c.04.01.092.015.13.025.046.01.086.025.131.04.04.01.08.025.12.04.044.015.078.046.118.06.034.02.09.026.126.046.04.025.074.05.108.075a.48.48 0 0 1 .096.08c.034.025.068.056.103.08.029.03.051.066.074.096.029.035.063.06.085.096.03.03.046.072.068.107.018.035.029.075.04.112.018.04.04.07.052.11.01.04.022.082.033.116.007.04.023.081.023.121a.717.717 0 0 1 .006.122v.122c-.006.045-.022.085-.029.125-.01.04-.006.08-.022.122-.011.04-.034.075-.052.116l-.051.117a1.941 1.941 0 0 1-.074.111c-.017.036-.034.07-.056.106-.023.035-.052.07-.074.106-.03.035-.052.076-.08.106-.04.05-.04.05-.08.096-.04.05-.04.05-.085.102-.04.045-.04.045-.079.095-.04.05-.045.045-.091.092-.04.05-.04.055-.08.1-.04.05-.023.06-.069.106l-.079.101c-.04.05-.045.045-.085.09-.045.05-.051.046-.09.096-.04.05-.029.056-.068.106-.045.05-.051.046-.091.096s-.052.04-.09.086c-.046.05-.035.06-.075.105-.04.05-.034.056-.074.107-.011.01-.034.005-.056.005-.068 0-.068.005-.142.005-.074 0-.074.01-.143.01h-.438c-.067 0-.067-.01-.148-.01-.067 0-.067.015-.136.015-.052 0-.08-.06-.052-.096.046-.046.046-.04.086-.09.04-.046.045-.046.079-.091.045-.045.045-.05.085-.095.04-.045.04-.045.074-.096.04-.046.045-.046.09-.091.034-.045.023-.055.063-.102.04-.05.051-.04.09-.09.04-.045.03-.055.068-.102l.074-.095c.045-.045.063-.035.103-.085.022-.03-.005-.08-.052-.08-.051 0-.096-.005-.136-.01-.046 0-.097 0-.142-.01-.04-.006-.085-.026-.13-.036-.046-.01-.086-.015-.131-.03a.914.914 0 0 1-.125-.04.945.945 0 0 1-.12-.066c-.04-.02-.085-.036-.119-.056a.698.698 0 0 1-.108-.081c-.033-.025-.062-.055-.102-.085-.03-.03-.063-.056-.09-.087-.03-.035-.046-.07-.075-.105-.022-.035-.051-.066-.067-.107-.023-.035-.052-.07-.063-.105a.761.761 0 0 1-.045-.117.498.498 0 0 1-.04-.122c-.012-.04 0-.08-.007-.121-.008-.04-.025-.08-.025-.12Zm6.638.556c0-.04.012-.082.007-.122 0-.046-.011-.08-.011-.122-.007-.045-.011-.087-.018-.122a.894.894 0 0 0-.029-.121c-.01-.04-.022-.08-.034-.122-.017-.04-.05-.072-.073-.102a.797.797 0 0 0-.063-.111 1.069 1.069 0 0 0-.085-.096.68.68 0 0 0-.216-.125.503.503 0 0 0-.126-.04c-.04-.005-.09-.01-.13-.01-.045 0-.085.01-.13.015-.04.01-.086.02-.126.04-.04.015-.085.02-.12.04-.033.025-.062.06-.096.087-.029.035-.056.06-.085.095a.681.681 0 0 0-.069.107c-.017.03-.045.065-.063.101-.01.04-.017.08-.029.122-.01.035-.033.08-.04.121-.01.036-.006.076-.01.122 0 .04-.03.075-.03.122 0 .04.007.08.007.122 0 .045.01.085.01.125.007.04-.01.087-.004.122l.017.125c.007.04.04.075.052.112a.605.605 0 0 0 .04.121c.011.04.023.082.045.117.018.035.052.066.074.101.029.03.052.066.08.092a.65.65 0 0 0 .107.075c.034.02.068.046.108.06.04.016.091.02.13.026.045.01.086.02.13.02.04 0 .092-.01.131-.015.045-.01.09-.005.13-.02.04-.015.068-.046.115-.066.034-.025.074-.04.102-.075.03-.025.046-.066.075-.102.022-.035.045-.066.067-.101a.529.529 0 0 0 .057-.117c.011-.035.04-.071.051-.105.011-.047.011-.087.018-.127.006-.04.029-.08.034-.121.006-.035.006-.082.006-.122.001-.041-.005-.082-.005-.127Zm-2.7-.006c0-.04.01-.08.017-.121v-.122c.006-.04.017-.08.022-.122l.018-.116c.011-.04.022-.08.034-.117.011-.04.011-.087.022-.122a3.25 3.25 0 0 1 .052-.111c.011-.04.029-.076.045-.117a.887.887 0 0 0 .056-.107l.068-.106c.023-.03.057-.065.08-.096.028-.035.056-.065.084-.096.03-.03.052-.065.08-.09.033-.03.073-.056.102-.087.034-.025.08-.04.114-.06.034-.025.063-.06.102-.08.04-.02.08-.042.12-.055a.992.992 0 0 1 .118-.05c.04-.016.09-.02.13-.036.04-.01.08-.03.126-.04.04-.01.09-.015.13-.02.046-.01.086-.025.131-.03.04-.005.09.01.137.01.04-.005.085-.01.13-.01.04 0 .092-.01.137-.01.04.005.085.025.125.03.045.005.086.01.137.02.04.005.085 0 .13.01.04.01.086.02.13.035.041.01.08.03.12.045.04.02.085.025.12.046.044.014.078.04.118.06.04.025.08.04.114.06.034.025.07.055.103.08.034.03.074.05.103.075.034.03.052.067.086.096.022.03.062.061.09.091.022.03.034.075.063.107.022.035.056.065.073.101.023.036.034.07.052.112.017.035.056.065.074.105.011.035.023.076.04.117.011.035.023.075.034.117.005.04.005.08.011.121.011.04.029.076.034.117.005.04-.006.08-.006.122.006.04.017.081.017.121 0 .04.007.08.007.122 0 .04-.007.08-.007.122a.781.781 0 0 0-.011.121c-.006.04-.006.08-.011.122-.007.04-.023.075-.03.117-.01.04 0 .086-.01.121l-.034.117a.851.851 0 0 1-.045.117c-.012.04-.046.075-.063.111-.018.035-.034.075-.052.112-.022.035-.045.065-.067.101a1.038 1.038 0 0 0-.074.1c-.03.03-.057.067-.085.097-.03.03-.052.066-.08.096-.035.03-.069.055-.102.081-.03.03-.08.04-.115.065-.04.025-.067.057-.107.076-.034.02-.08.03-.12.05-.04.02-.079.035-.119.05-.04.015-.079.03-.125.041-.045.015-.085.035-.126.046-.045.01-.085.01-.13.02-.045.005-.092.015-.13.02-.046.005-.09.01-.13.01-.046.005-.097 0-.138 0-.045 0-.09.005-.13.005l-.137-.015c-.045-.005-.091-.005-.13-.01-.047-.01-.092-.03-.13-.04-.04-.01-.086-.01-.131-.026-.04-.015-.09-.02-.13-.035-.04-.015-.075-.045-.108-.065-.04-.015-.074-.04-.12-.06-.04-.02-.08-.035-.114-.062-.034-.02-.074-.04-.108-.07-.033-.025-.056-.066-.09-.096-.029-.026-.074-.046-.103-.076-.028-.03-.051-.066-.079-.096-.022-.035-.051-.072-.074-.107a1.388 1.388 0 0 1-.124-.208c-.017-.04-.034-.075-.045-.117a.642.642 0 0 1-.045-.116c-.011-.035-.011-.076-.029-.117-.011-.04-.017-.08-.029-.122-.006-.04-.017-.075-.022-.116-.007-.04-.023-.08-.03-.122-.005-.04 0-.08-.005-.122-.002-.039-.007-.079-.007-.119Z" fill="var(--mooBlack)"></path>
</svg>
