<svg width="390" height="44" viewBox="0 0 390 44" fill="none" xmlns="http://www.w3.org/2000/svg">
<rect width="390" height="44" fill="#FFF9DB"/>
<path d="M135.909 26H137.401L138.245 23.5244H141.774L142.612 26H144.104L140.778 16.8403H139.242L135.909 26ZM139.997 18.3574H140.022L141.387 22.3818H138.626L139.997 18.3574ZM144.954 26H146.325V21.9819C146.325 21.0361 146.871 20.4458 147.754 20.4458C148.02 20.4458 148.262 20.4775 148.369 20.522V19.2461C148.262 19.2271 148.09 19.1953 147.893 19.1953C147.106 19.1953 146.51 19.665 146.306 20.4268H146.275V19.3223H144.954V26ZM149.22 26H150.591V21.9819C150.591 21.0361 151.137 20.4458 152.019 20.4458C152.286 20.4458 152.527 20.4775 152.635 20.522V19.2461C152.527 19.2271 152.356 19.1953 152.159 19.1953C151.372 19.1953 150.775 19.665 150.572 20.4268H150.54V19.3223H149.22V26ZM154.228 18.2939C154.679 18.2939 155.028 17.9385 155.028 17.5068C155.028 17.0688 154.679 16.7134 154.228 16.7134C153.784 16.7134 153.429 17.0688 153.429 17.5068C153.429 17.9385 153.784 18.2939 154.228 18.2939ZM153.543 26H154.914V19.3223H153.543V26ZM158.164 26H159.637L162.03 19.3223H160.601L158.926 24.6606H158.894L157.218 19.3223H155.758L158.164 26ZM165.413 26.1333C167.032 26.1333 168.06 25.1685 168.276 24.1084L168.288 24.0386H166.987L166.968 24.0894C166.797 24.5908 166.257 25.0098 165.445 25.0098C164.353 25.0098 163.661 24.2734 163.636 23.0103H168.365V22.5469C168.365 20.541 167.216 19.1953 165.343 19.1953C163.471 19.1953 162.264 20.5918 162.264 22.6802V22.6865C162.264 24.7939 163.451 26.1333 165.413 26.1333ZM165.349 20.3188C166.244 20.3188 166.892 20.8838 167.006 22.0391H163.655C163.775 20.9219 164.461 20.3188 165.349 20.3188ZM171.932 26.1333C173.506 26.1333 174.649 25.2954 174.649 24.0767V24.0703C174.649 23.1118 174.128 22.5723 172.763 22.2549L171.678 22.0073C170.961 21.8359 170.688 21.5566 170.688 21.144V21.1377C170.688 20.6045 171.151 20.2554 171.887 20.2554C172.662 20.2554 173.119 20.6616 173.201 21.2456L173.208 21.29H174.496L174.49 21.2139C174.42 20.0776 173.468 19.1953 171.887 19.1953C170.351 19.1953 169.31 20.0142 169.31 21.2075V21.2139C169.31 22.1851 169.939 22.7944 171.208 23.0864L172.3 23.334C173.017 23.5054 173.259 23.7529 173.259 24.1846V24.1909C173.259 24.7305 172.763 25.0732 171.938 25.0732C171.094 25.0732 170.637 24.7114 170.51 24.0957L170.497 24.0322H169.139L169.145 24.0894C169.285 25.3081 170.262 26.1333 171.932 26.1333ZM181.904 26.1333C183.599 26.1333 184.697 24.7876 184.697 22.6611V22.6548C184.697 20.5283 183.593 19.1953 181.917 19.1953C180.971 19.1953 180.209 19.6714 179.809 20.4585H179.778V16.8403H178.407V26H179.778V24.8701H179.809C180.203 25.6509 180.946 26.1333 181.904 26.1333ZM181.542 24.9526C180.501 24.9526 179.771 24.0513 179.771 22.6611V22.6548C179.771 21.271 180.508 20.3696 181.542 20.3696C182.621 20.3696 183.294 21.2456 183.294 22.6548V22.6611C183.294 24.083 182.621 24.9526 181.542 24.9526ZM186.29 28.228C187.598 28.228 188.296 27.6948 188.791 26.311L191.28 19.3223H189.832L188.15 24.7559H188.106L186.424 19.3223H184.938L187.369 26.0063L187.255 26.3237C187.027 26.9712 186.671 27.1426 186.024 27.1426C185.84 27.1426 185.681 27.1172 185.573 27.0918V28.1646C185.738 28.1963 186.024 28.228 186.29 28.228ZM194.206 26H195.698L196.542 23.5244H200.071L200.909 26H202.401L199.075 16.8403H197.538L194.206 26ZM198.294 18.3574H198.319L199.684 22.3818H196.923L198.294 18.3574ZM203.251 28.2217H204.622V24.8765H204.654C205.048 25.6509 205.816 26.1333 206.762 26.1333C208.437 26.1333 209.535 24.7939 209.535 22.6675V22.6611C209.535 20.5283 208.444 19.1953 206.742 19.1953C205.79 19.1953 205.054 19.6777 204.654 20.4712H204.622V19.3223H203.251V28.2217ZM206.387 24.9526C205.352 24.9526 204.616 24.0513 204.616 22.6675V22.6611C204.616 21.271 205.346 20.3696 206.387 20.3696C207.46 20.3696 208.139 21.2393 208.139 22.6611V22.6675C208.139 24.0767 207.466 24.9526 206.387 24.9526ZM210.602 26H211.973V21.9819C211.973 21.0361 212.519 20.4458 213.401 20.4458C213.668 20.4458 213.909 20.4775 214.017 20.522V19.2461C213.909 19.2271 213.738 19.1953 213.541 19.1953C212.754 19.1953 212.157 19.665 211.954 20.4268H211.922V19.3223H210.602V26ZM215.61 18.2939C216.061 18.2939 216.41 17.9385 216.41 17.5068C216.41 17.0688 216.061 16.7134 215.61 16.7134C215.166 16.7134 214.81 17.0688 214.81 17.5068C214.81 17.9385 215.166 18.2939 215.61 18.2939ZM214.925 26H216.296V19.3223H214.925V26ZM217.762 26H219.133V16.8403H217.762V26ZM226.414 26.1523C228.356 26.1523 229.734 25.0352 229.734 23.4673V23.4546C229.734 22.1724 228.832 21.3599 227.487 21.2393V21.2075C228.604 20.9727 229.416 20.2109 229.416 19.0747V19.062C229.416 17.6528 228.223 16.688 226.401 16.688C224.611 16.688 223.392 17.6973 223.253 19.2271L223.246 19.2905H224.579L224.586 19.2334C224.675 18.3828 225.386 17.8496 226.401 17.8496C227.436 17.8496 228.033 18.3638 228.033 19.2461V19.2588C228.033 20.1094 227.322 20.7251 226.274 20.7251H225.201V21.8296H226.312C227.537 21.8296 228.286 22.4072 228.286 23.4419V23.4546C228.286 24.3433 227.531 24.9653 226.414 24.9653C225.278 24.9653 224.51 24.394 224.421 23.5815L224.414 23.5117H223.05L223.056 23.5942C223.183 25.0859 224.459 26.1523 226.414 26.1523ZM236.037 26.1333C236.316 26.1333 236.576 26.1016 236.735 26.0762V25.0161C236.634 25.0288 236.513 25.0415 236.367 25.0415C235.789 25.0415 235.485 24.8384 235.485 24.1592V20.4141H236.735V19.3223H235.485V17.583H234.082V19.3223H233.123V20.4141H234.082V24.2417C234.082 25.5747 234.717 26.1333 236.037 26.1333ZM240.575 26.1333C242.486 26.1333 243.743 24.813 243.743 22.6611V22.6484C243.743 20.5093 242.473 19.1953 240.569 19.1953C238.671 19.1953 237.408 20.5156 237.408 22.6484V22.6611C237.408 24.8066 238.658 26.1333 240.575 26.1333ZM240.582 24.9844C239.509 24.9844 238.811 24.1401 238.811 22.6611V22.6484C238.811 21.1885 239.515 20.3442 240.569 20.3442C241.642 20.3442 242.34 21.1885 242.34 22.6484V22.6611C242.34 24.1338 241.655 24.9844 240.582 24.9844ZM246.929 26H248.421L249.265 23.5244H252.795L253.633 26H255.124L251.798 16.8403H250.262L246.929 26ZM251.017 18.3574H251.043L252.408 22.3818H249.646L251.017 18.3574ZM255.975 28.2217H257.346V24.8765H257.378C257.771 25.6509 258.539 26.1333 259.485 26.1333C261.161 26.1333 262.259 24.7939 262.259 22.6675V22.6611C262.259 20.5283 261.167 19.1953 259.466 19.1953C258.514 19.1953 257.778 19.6777 257.378 20.4712H257.346V19.3223H255.975V28.2217ZM259.111 24.9526C258.076 24.9526 257.34 24.0513 257.34 22.6675V22.6611C257.34 21.271 258.07 20.3696 259.111 20.3696C260.183 20.3696 260.863 21.2393 260.863 22.6611V22.6675C260.863 24.0767 260.19 24.9526 259.111 24.9526ZM263.326 26H264.697V21.9819C264.697 21.0361 265.243 20.4458 266.125 20.4458C266.391 20.4458 266.633 20.4775 266.741 20.522V19.2461C266.633 19.2271 266.461 19.1953 266.264 19.1953C265.477 19.1953 264.881 19.665 264.678 20.4268H264.646V19.3223H263.326V26ZM268.334 18.2939C268.785 18.2939 269.134 17.9385 269.134 17.5068C269.134 17.0688 268.785 16.7134 268.334 16.7134C267.889 16.7134 267.534 17.0688 267.534 17.5068C267.534 17.9385 267.889 18.2939 268.334 18.2939ZM267.648 26H269.019V19.3223H267.648V26ZM270.486 26H271.857V16.8403H270.486V26ZM279.258 16.688C277.322 16.688 275.907 18.002 275.907 19.8301V19.8428C275.907 21.5757 277.176 22.8516 278.928 22.8516C280.172 22.8516 281.099 22.2041 281.461 21.3789H281.493C281.493 21.4614 281.493 21.5439 281.486 21.6265C281.429 23.4419 280.788 24.959 279.214 24.959C278.338 24.959 277.741 24.5273 277.481 23.8418L277.455 23.7783H276.034L276.053 23.8545C276.345 25.2192 277.57 26.1523 279.201 26.1523C281.493 26.1523 282.857 24.3496 282.857 21.2964V21.2837C282.857 17.9893 281.131 16.688 279.258 16.688ZM279.252 21.6963C278.141 21.6963 277.322 20.9092 277.322 19.8047V19.792C277.322 18.7256 278.192 17.8813 279.271 17.8813C280.363 17.8813 281.213 18.7383 281.213 19.8237V19.8301C281.213 20.9155 280.369 21.6963 279.252 21.6963ZM286.437 26.1333C286.717 26.1333 286.977 26.1016 287.136 26.0762V25.0161C287.034 25.0288 286.913 25.0415 286.767 25.0415C286.19 25.0415 285.885 24.8384 285.885 24.1592V20.4141H287.136V19.3223H285.885V17.583H284.482V19.3223H283.524V20.4141H284.482V24.2417C284.482 25.5747 285.117 26.1333 286.437 26.1333ZM288.323 26H289.694V22.1343C289.694 21.0933 290.322 20.3696 291.268 20.3696C292.233 20.3696 292.791 21.0298 292.791 22.1343V26H294.162V21.874C294.162 20.2617 293.223 19.1953 291.795 19.1953C290.798 19.1953 290.081 19.646 289.725 20.4204H289.694V16.8403H288.323V26Z" fill="#495057"/>
<g clip-path="url(#clip0_7_6372)">
<path d="M109.072 24.4668C107.361 24.4668 105.969 25.8051 105.969 27.4503C105.969 29.0954 107.361 30.4337 109.072 30.4337C110.783 30.4337 112.174 29.0954 112.174 27.4503C112.174 25.8051 110.782 24.4668 109.072 24.4668ZM109.072 28.942C108.216 28.942 107.52 28.2729 107.52 27.4503C107.52 26.6276 108.216 25.9585 109.072 25.9585C109.927 25.9585 110.623 26.6276 110.623 27.4503C110.623 28.273 109.927 28.942 109.072 28.942Z" fill="#495057"/>
<path d="M98.47 24.4668C96.7591 24.4668 95.3672 25.8051 95.3672 27.4503C95.3672 29.0954 96.7591 30.4337 98.47 30.4337C100.181 30.4337 101.573 29.0954 101.573 27.4503C101.573 25.8051 100.181 24.4668 98.47 24.4668ZM98.47 28.942C97.6144 28.942 96.9186 28.2729 96.9186 27.4503C96.9186 26.6276 97.6144 25.9585 98.47 25.9585C99.3253 25.9585 100.021 26.6276 100.021 27.4503C100.021 28.273 99.3256 28.942 98.47 28.942Z" fill="#495057"/>
<path d="M111.16 15.9273C111.029 15.6755 110.76 15.5166 110.467 15.5166H106.382V17.0083H109.989L112.101 21.0479L113.487 20.3776L111.16 15.9273Z" fill="#495057"/>
<path d="M106.744 26.7285H100.875V28.2202H106.744V26.7285Z" fill="#495057"/>
<path d="M96.1434 26.7285H93.4544C93.0259 26.7285 92.6787 27.0624 92.6787 27.4744C92.6787 27.8863 93.026 28.2202 93.4544 28.2202H96.1435C96.5719 28.2202 96.9192 27.8863 96.9192 27.4744C96.9192 27.0624 96.5719 26.7285 96.1434 26.7285Z" fill="#495057"/>
<path d="M114.933 22.1692L113.408 20.2797C113.261 20.0977 113.035 19.9913 112.795 19.9913H107.158V14.7703C107.158 14.3583 106.811 14.0244 106.383 14.0244H93.4544C93.0259 14.0244 92.6787 14.3583 92.6787 14.7703C92.6787 15.1822 93.026 15.5161 93.4544 15.5161H105.607V20.7371C105.607 21.1491 105.954 21.483 106.383 21.483H112.415L113.545 22.8822V26.7289H111.399C110.97 26.7289 110.623 27.0628 110.623 27.4747C110.623 27.8867 110.97 28.2205 111.399 28.2205H114.321C114.749 28.2205 115.096 27.8866 115.096 27.4747V22.6267C115.096 22.4611 115.039 22.3 114.933 22.1692Z" fill="#495057"/>
<path d="M96.091 22.9502H92.5227C92.0943 22.9502 91.7471 23.2841 91.7471 23.696C91.7471 24.108 92.0943 24.4419 92.5227 24.4419H96.0909C96.5194 24.4419 96.8666 24.108 96.8666 23.696C96.8666 23.2841 96.5194 22.9502 96.091 22.9502Z" fill="#495057"/>
<path d="M97.8754 20.0166H91.2561C90.8277 20.0166 90.4805 20.3505 90.4805 20.7625C90.4805 21.1745 90.8277 21.5083 91.2561 21.5083H97.8754C98.3039 21.5083 98.6511 21.1744 98.6511 20.7625C98.6511 20.3506 98.3039 20.0166 97.8754 20.0166Z" fill="#495057"/>
<path d="M99.142 17.082H92.5227C92.0943 17.082 91.7471 17.4159 91.7471 17.8279C91.7471 18.2399 92.0943 18.5737 92.5227 18.5737H99.142C99.5705 18.5737 99.9177 18.2398 99.9177 17.8279C99.9177 17.4159 99.5705 17.082 99.142 17.082Z" fill="#495057"/>
</g>
<defs>
<clipPath id="clip0_7_6372">
<rect width="24.96" height="24" fill="white" transform="translate(90.4805 10)"/>
</clipPath>
</defs>
</svg>
