<svg width="32" height="32" viewBox="0 0 32 32" fill="none" xmlns="http://www.w3.org/2000/svg">
<circle cx="16" cy="16" r="15" stroke="#0B0B0B" stroke-width="2"/>
<path d="M18.6729 20.1787H20.1406V23H11.8525V21.8135L16.0449 17.1553C16.2969 16.8799 16.5195 16.6221 16.7129 16.3818C16.9062 16.1416 17.0732 15.9219 17.2139 15.7227C17.4951 15.3242 17.6914 14.9668 17.8027 14.6504C17.9141 14.3281 17.9697 13.9941 17.9697 13.6484C17.9697 13.0098 17.7764 12.4736 17.3896 12.04C17.0029 11.6006 16.4492 11.3809 15.7285 11.3809C14.9785 11.3809 14.3926 11.6064 13.9707 12.0576C13.5547 12.5088 13.3467 13.1475 13.3467 13.9736H11.6855L11.668 13.9209C11.6504 13.1826 11.8057 12.5176 12.1338 11.9258C12.4619 11.334 12.9365 10.8682 13.5576 10.5283C14.1846 10.1885 14.9287 10.0186 15.79 10.0186C16.5986 10.0186 17.2959 10.1709 17.8818 10.4756C18.4619 10.7803 18.9102 11.2021 19.2266 11.7412C19.543 12.2744 19.7012 12.8867 19.7012 13.5781C19.7012 14.0527 19.6104 14.5186 19.4287 14.9756C19.2471 15.4385 18.9775 15.9131 18.6201 16.3994C18.2627 16.8857 17.835 17.3984 17.3369 17.9375L13.9707 21.6025L13.9883 21.6465H18.5322L18.6729 20.1787Z" fill="#080809"/>
</svg>
