<svg width="32" height="32" viewBox="0 0 32 32" fill="none" xmlns="http://www.w3.org/2000/svg">
<circle cx="16" cy="16" r="15" stroke="#070707" stroke-width="2"/>
<path d="M15.6582 23.1846C14.8672 23.1846 14.1729 23.041 13.5752 22.7539C12.9658 22.4727 12.4883 22.0713 12.1426 21.5498C11.8027 21.0225 11.6416 20.3984 11.6592 19.6777L11.6855 19.625H13.3379C13.3379 20.0762 13.4316 20.4658 13.6191 20.7939C14.0176 21.4854 14.6973 21.8311 15.6582 21.8311C16.3906 21.8311 16.9648 21.6318 17.3809 21.2334C17.7969 20.835 18.0049 20.2461 18.0049 19.4668C18.0049 18.6758 17.8203 18.0928 17.4512 17.7178C17.082 17.3428 16.499 17.1553 15.7021 17.1553H14.1904V15.8018H15.7021C16.2178 15.8018 16.6279 15.7139 16.9326 15.5381C17.2432 15.3682 17.4658 15.1221 17.6006 14.7998C17.7412 14.4717 17.8115 14.0791 17.8115 13.6221C17.8115 12.1279 17.0938 11.3809 15.6582 11.3809C15.207 11.3809 14.8145 11.4688 14.4805 11.6445C13.7773 12.0254 13.4258 12.6611 13.4258 13.5518H11.7646L11.7471 13.499C11.7295 12.8604 11.8848 12.2744 12.2129 11.7412C12.541 11.2139 13.001 10.7949 13.5928 10.4844C14.1846 10.1738 14.873 10.0186 15.6582 10.0186C16.8418 10.0186 17.7852 10.335 18.4883 10.9678C19.1914 11.5947 19.543 12.4912 19.543 13.6572C19.543 14.1846 19.3818 14.7119 19.0596 15.2393C18.7432 15.7607 18.2656 16.1592 17.627 16.4346C18.3945 16.6865 18.9365 17.082 19.2529 17.6211C19.5752 18.1602 19.7363 18.7637 19.7363 19.4316C19.7363 20.2109 19.5635 20.8789 19.2178 21.4355C18.8662 21.998 18.3828 22.4316 17.7676 22.7363C17.1523 23.0352 16.4492 23.1846 15.6582 23.1846Z" fill="#080809"/>
</svg>
