<svg width="36" height="36" viewBox="0 0 36 36" fill="none" xmlns="http://www.w3.org/2000/svg">
<path fill-rule="evenodd" clip-rule="evenodd" d="M29.9994 8.52695C30.333 8.53342 30.6019 8.80156 30.6084 9.13424V28.5676C30.6084 28.9097 30.3303 29.187 29.9873 29.187H5.64182C5.30355 29.1804 5.03288 28.905 5.03288 28.5676V9.13424C5.03936 8.80156 5.30823 8.53341 5.64182 8.52695H29.9994ZM29.9994 6.70508H5.64182C4.29658 6.70508 3.20605 7.79265 3.20605 9.13424V28.5676C3.20605 29.9092 4.29658 30.9967 5.64182 30.9967H29.9994C31.3447 30.9967 32.4352 29.9092 32.4352 28.5676V9.13424C32.4352 7.79265 31.3447 6.70508 29.9994 6.70508Z" fill="#212529"/>
<path d="M4.61914 12.7656H30.8158" stroke="#212529" stroke-width="1.25" stroke-linecap="round" stroke-linejoin="round"/>
<path d="M4.65527 17.6367H30.8519" stroke="#212529" stroke-width="1.25" stroke-linecap="round" stroke-linejoin="round"/>
<path d="M9.29492 24.9238H16.6022" stroke="#212529" stroke-width="1.25" stroke-linecap="round" stroke-linejoin="round"/>
<path d="M23.9102 24.9238H26.3459" stroke="#212529" stroke-width="1.25" stroke-linecap="round" stroke-linejoin="round"/>
</svg>
